<?xml version="1.0" standalone="no"?>
<!DOCTYPE svg PUBLIC "-//W3C//DTD SVG 20010904//EN"
 "http://www.w3.org/TR/2001/REC-SVG-20010904/DTD/svg10.dtd">
<svg version="1.0" xmlns="http://www.w3.org/2000/svg"
 width="500.000000pt" height="500.000000pt" viewBox="0 0 500.000000 500.000000"
 preserveAspectRatio="xMidYMid meet">

<g transform="translate(0.000000,500.000000) scale(0.100000,-0.100000)"
fill="#000000" stroke="none">
<path d="M2379 3621 c-16 -16 -29 -36 -29 -44 0 -10 -20 -22 -52 -32 -119 -38
-256 -138 -331 -243 -98 -136 -136 -252 -137 -409 l0 -83 -68 0 c-74 0 -112
-17 -112 -51 0 -18 -9 -19 -208 -19 -148 0 -211 -3 -220 -12 -9 -9 -12 -130
-12 -485 l0 -473 24 -16 c22 -13 58 -15 268 -12 212 4 249 7 292 24 66 26 119
74 150 136 34 68 37 187 6 248 -20 39 -81 90 -108 90 -7 0 6 15 30 33 65 49
90 106 85 192 -4 79 -21 117 -76 175 l-38 40 641 -2 641 -3 3 -452 2 -453 25
-16 c21 -13 57 -15 262 -12 217 3 243 6 293 26 105 41 174 144 174 257 1 101
-34 161 -116 205 l-29 16 41 32 c59 48 74 83 74 172 -1 44 -7 89 -16 110 -25
57 -85 117 -146 147 -51 25 -70 28 -174 32 -107 3 -118 5 -118 21 0 33 -39 50
-111 50 l-67 0 -4 118 c-6 169 -53 287 -169 427 -51 61 -190 156 -273 186 -43
16 -67 31 -81 53 -31 47 -58 56 -178 56 -107 0 -109 0 -138 -29z m219 -291 c2
-221 5 -230 58 -230 45 0 54 32 54 192 0 82 2 148 4 148 20 0 97 -37 144 -69
157 -106 252 -291 252 -488 l0 -73 -585 0 -585 0 0 71 c0 90 25 198 63 274 55
110 210 248 315 280 l22 6 0 -140 c0 -84 5 -150 12 -165 21 -47 81 -45 99 2 6
16 10 100 9 202 -2 96 -2 181 -1 188 1 9 19 12 69 10 l67 -3 3 -205z m-913
-855 c16 -15 25 -36 25 -55 0 -19 -9 -40 -25 -55 -22 -23 -32 -25 -115 -25
l-90 0 0 80 0 80 90 0 c83 0 93 -2 115 -25z m1905 0 c33 -35 31 -81 -4 -112
-24 -20 -37 -23 -112 -23 l-84 0 0 80 0 80 88 0 c81 0 90 -2 112 -25z m-89
-335 c71 0 83 -3 104 -25 32 -31 33 -80 3 -112 -20 -21 -30 -23 -126 -23
l-105 0 7 38 c3 20 6 59 6 86 0 40 3 47 16 42 9 -3 51 -6 95 -6z m-1802 -26
c12 -15 21 -39 21 -54 0 -15 -9 -39 -21 -54 -20 -25 -24 -26 -120 -26 l-99 0
0 80 0 80 99 0 c96 0 100 -1 120 -26z"/>
<path d="M2162 2505 c-80 -91 -118 -203 -109 -325 6 -93 32 -161 92 -245 92
-130 228 -198 395 -197 169 0 304 67 402 200 68 92 82 138 82 277 1 117 0 123
-32 188 -18 37 -48 83 -66 102 l-33 35 -351 0 -350 0 -30 -35z m477 -104 c128
-66 158 -221 63 -331 -45 -53 -99 -80 -159 -80 -120 1 -213 97 -213 220 0 83
48 166 114 195 48 21 150 19 195 -4z"/>
<path d="M1482 1527 c-9 -10 -12 -48 -10 -123 l3 -109 30 0 c25 0 30 4 33 28
5 38 31 35 67 -9 25 -29 35 -35 53 -30 27 9 28 26 2 59 -17 21 -18 27 -7 34
19 11 37 47 37 72 0 11 -13 35 -29 53 -26 29 -35 33 -98 36 -52 3 -72 0 -81
-11z m133 -87 c0 -22 -4 -25 -40 -25 -36 0 -40 3 -43 28 -3 27 -2 28 40 25 38
-3 43 -6 43 -28z"/>
<path d="M1828 1529 c-15 -9 -18 -26 -18 -119 0 -128 1 -130 104 -130 45 0 69
5 80 16 34 33 8 54 -66 54 -44 0 -58 4 -58 14 0 11 15 16 53 18 44 3 52 6 52
23 0 17 -8 21 -50 25 -35 4 -51 10 -53 21 -2 13 9 18 62 23 68 8 87 23 60 51
-18 18 -138 21 -166 4z"/>
<path d="M2149 1511 c-52 -52 -36 -98 45 -128 27 -10 48 -22 47 -28 -1 -9 -13
-10 -86 -3 -43 4 -45 -26 -3 -52 83 -50 186 8 153 87 -10 24 -24 34 -64 48
-28 9 -53 21 -57 26 -9 16 26 22 61 12 29 -9 37 -8 51 8 15 17 14 19 -17 38
-49 30 -94 27 -130 -8z"/>
<path d="M2481 1522 c-98 -49 -90 -188 12 -227 36 -14 48 -14 82 -3 78 26 109
120 62 189 -40 59 -94 73 -156 41z m101 -69 c39 -35 11 -103 -43 -103 -36 0
-59 24 -59 60 0 54 61 80 102 43z"/>
<path d="M2793 1533 c-9 -3 -13 -37 -13 -118 0 -137 3 -140 108 -131 70 7 87
18 71 48 -8 14 -22 18 -64 18 l-55 0 0 79 c0 59 -4 84 -16 95 -8 9 -16 16 -17
15 -1 0 -8 -3 -14 -6z"/>
<path d="M3037 1533 c-15 -15 -5 -53 40 -145 25 -54 54 -100 63 -103 28 -9 47
4 63 43 9 20 29 68 46 107 21 51 27 74 20 87 -18 33 -39 20 -65 -39 -13 -32
-30 -71 -37 -87 l-13 -29 -29 69 c-38 92 -64 121 -88 97z"/>
<path d="M3406 1524 c-12 -12 -16 -38 -16 -114 0 -123 5 -130 96 -130 73 0
104 12 104 39 0 24 -19 31 -86 31 -40 0 -54 4 -54 14 0 11 15 16 53 18 45 3
52 6 55 25 3 20 -2 22 -50 25 -45 3 -53 6 -53 23 0 18 8 20 68 23 56 2 67 6
67 20 0 33 -22 42 -96 42 -53 0 -77 -4 -88 -16z"/>
</g>
</svg>
