<svg width="281" height="43" viewBox="0 0 281 43" fill="none" xmlns="http://www.w3.org/2000/svg">
<g clip-path="url(#clip0_1_9)">
<path d="M18.7495 8.29662H23.536C23.7573 8.29662 23.9621 8.18761 24.0909 8.00593C24.2164 7.82755 24.2462 7.59302 24.1702 7.38491L21.7753 0.903853C21.6762 0.636287 21.4252 0.461212 21.1411 0.461212C20.857 0.461212 20.6059 0.63959 20.5068 0.903853L18.112 7.38821C18.036 7.59632 18.0657 7.82755 18.1912 8.00923C18.3201 8.19091 18.5282 8.29662 18.7495 8.29662ZM32.1278 13.8395C32.2533 13.9684 32.4284 14.0377 32.6035 14.0377C32.6431 14.0377 32.6828 14.0344 32.7224 14.0278C32.9404 13.9882 33.1221 13.8461 33.2179 13.6446L36.1116 7.36509C36.2305 7.10743 36.1744 6.80684 35.9762 6.60533C35.7747 6.40383 35.4707 6.35098 35.2131 6.4666L28.9368 9.36358C28.7353 9.45608 28.5933 9.64106 28.5537 9.85908C28.514 10.0771 28.5867 10.2984 28.7386 10.457L32.1278 13.8395ZM41.6809 20.8062L35.1933 18.4146C34.9852 18.3386 34.7539 18.3684 34.5723 18.4939C34.3906 18.6194 34.2849 18.8242 34.2849 19.0455L34.2882 23.832C34.2882 24.0533 34.3972 24.2614 34.5789 24.387C34.6945 24.4629 34.8299 24.5059 34.9653 24.5059C35.0446 24.5059 35.1239 24.4927 35.1999 24.4629L41.6875 22.0713C41.9518 21.9756 42.1302 21.7212 42.1302 21.4338C42.1236 21.1563 41.9485 20.9053 41.6809 20.8062ZM33.2179 29.2362C33.1723 29.1371 33.1034 29.0506 33.0171 28.9839C32.9309 28.9171 32.8298 28.8723 32.7224 28.853C32.5044 28.8167 32.2798 28.886 32.1278 29.0413L28.7419 32.4272C28.5867 32.5824 28.514 32.807 28.5537 33.0251C28.5933 33.2398 28.7353 33.4281 28.9368 33.5206L35.2164 36.4142C35.3056 36.4572 35.4014 36.4737 35.5005 36.4737C35.6756 36.4737 35.8473 36.4043 35.9762 36.2755C36.1777 36.074 36.2305 35.7734 36.1116 35.5157L33.2179 29.2362ZM23.5327 34.5809L18.7462 34.5842C18.5249 34.5842 18.3201 34.6932 18.1945 34.8749C18.069 35.0566 18.0393 35.2878 18.112 35.4926L20.5068 41.9803C20.6059 42.2445 20.857 42.4229 21.1411 42.4229C21.4252 42.4229 21.6762 42.2445 21.7753 41.9803L24.1702 35.4926C24.2462 35.2845 24.2164 35.0533 24.0909 34.8716C23.9621 34.6899 23.7573 34.5809 23.5327 34.5809ZM10.1543 29.0413C9.99907 28.886 9.77775 28.8167 9.55973 28.853C9.34171 28.8926 9.15673 29.0347 9.06424 29.2362L6.17055 35.5157C6.05163 35.7734 6.10779 36.0773 6.30929 36.2755C6.40677 36.3732 6.53194 36.4387 6.66784 36.4629C6.80374 36.4871 6.9438 36.469 7.06905 36.4109L13.3486 33.514C13.4477 33.4683 13.5342 33.3994 13.6009 33.3132C13.6676 33.2269 13.7125 33.1258 13.7318 33.0185C13.7714 32.8004 13.6988 32.5791 13.5435 32.4239L10.1543 29.0413ZM7.3234 24.5092C7.45884 24.5092 7.59427 24.4662 7.70989 24.387C7.89157 24.2614 8.00058 24.0533 8.00058 23.832L7.99727 19.0455C7.99729 18.9368 7.97104 18.8296 7.92076 18.7331C7.87048 18.6367 7.79765 18.5538 7.70846 18.4915C7.61927 18.4293 7.51637 18.3894 7.4085 18.3755C7.30062 18.3615 7.19097 18.3738 7.08887 18.4113L0.601203 20.8062C0.471304 20.8538 0.359162 20.9402 0.27994 21.0536C0.200717 21.167 0.158234 21.3021 0.158234 21.4404C0.158234 21.5788 0.200717 21.7138 0.27994 21.8272C0.359162 21.9407 0.471304 22.027 0.601203 22.0746L7.09217 24.4662C7.16815 24.496 7.24412 24.5092 7.3234 24.5092ZM9.06754 13.6446C9.11329 13.7436 9.18226 13.8301 9.26859 13.8967C9.35492 13.9633 9.45606 14.0081 9.56341 14.0272C9.67076 14.0464 9.78114 14.0393 9.88517 14.0066C9.9892 13.9739 10.0838 13.9166 10.1609 13.8395L13.5435 10.4537C13.6988 10.2951 13.7681 10.0738 13.7285 9.85577C13.6888 9.64106 13.5468 9.45608 13.3453 9.36358L7.06244 6.4699C6.80478 6.35098 6.50419 6.40714 6.30268 6.60864C6.10118 6.81014 6.04833 7.11074 6.16725 7.36839L9.06754 13.6446Z" fill="#001A7A"/>
<path d="M18.7495 8.29662H23.536C23.7573 8.29662 23.9621 8.18761 24.0909 8.00593C24.2164 7.82755 24.2462 7.59302 24.1702 7.38491L21.7753 0.903853C21.6762 0.636287 21.4252 0.461212 21.1411 0.461212C20.857 0.461212 20.6059 0.63959 20.5068 0.903853L18.112 7.38821C18.036 7.59632 18.0657 7.82755 18.1912 8.00923C18.3201 8.19091 18.5282 8.29662 18.7495 8.29662ZM32.1278 13.8395C32.2533 13.9684 32.4284 14.0377 32.6035 14.0377C32.6431 14.0377 32.6828 14.0344 32.7224 14.0278C32.9404 13.9882 33.1221 13.8461 33.2179 13.6446L36.1116 7.36509C36.2305 7.10743 36.1744 6.80684 35.9762 6.60533C35.7747 6.40383 35.4707 6.35098 35.2131 6.4666L28.9368 9.36358C28.7353 9.45608 28.5933 9.64106 28.5537 9.85908C28.514 10.0771 28.5867 10.2984 28.7386 10.457L32.1278 13.8395ZM41.6809 20.8062L35.1933 18.4146C34.9852 18.3386 34.7539 18.3684 34.5723 18.4939C34.3906 18.6194 34.2849 18.8242 34.2849 19.0455L34.2882 23.832C34.2882 24.0533 34.3972 24.2614 34.5789 24.387C34.6945 24.4629 34.8299 24.5059 34.9653 24.5059C35.0446 24.5059 35.1239 24.4927 35.1999 24.4629L41.6875 22.0713C41.9518 21.9756 42.1302 21.7212 42.1302 21.4338C42.1236 21.1563 41.9485 20.9053 41.6809 20.8062ZM33.2179 29.2362C33.1723 29.1371 33.1034 29.0506 33.0171 28.9839C32.9309 28.9171 32.8298 28.8723 32.7224 28.853C32.5044 28.8167 32.2798 28.886 32.1278 29.0413L28.7419 32.4272C28.5867 32.5824 28.514 32.807 28.5537 33.0251C28.5933 33.2398 28.7353 33.4281 28.9368 33.5206L35.2164 36.4142C35.3056 36.4572 35.4014 36.4737 35.5005 36.4737C35.6756 36.4737 35.8473 36.4043 35.9762 36.2755C36.1777 36.074 36.2305 35.7734 36.1116 35.5157L33.2179 29.2362ZM23.5327 34.5809L18.7462 34.5842C18.5249 34.5842 18.3201 34.6932 18.1945 34.8749C18.069 35.0566 18.0393 35.2878 18.112 35.4926L20.5068 41.9803C20.6059 42.2445 20.857 42.4229 21.1411 42.4229C21.4252 42.4229 21.6762 42.2445 21.7753 41.9803L24.1702 35.4926C24.2462 35.2845 24.2164 35.0533 24.0909 34.8716C23.9621 34.6899 23.7573 34.5809 23.5327 34.5809ZM10.1543 29.0413C9.99907 28.886 9.77775 28.8167 9.55973 28.853C9.34171 28.8926 9.15673 29.0347 9.06424 29.2362L6.17055 35.5157C6.05163 35.7734 6.10779 36.0773 6.30929 36.2755C6.40677 36.3732 6.53194 36.4387 6.66784 36.4629C6.80374 36.4871 6.9438 36.469 7.06905 36.4109L13.3486 33.514C13.4477 33.4683 13.5342 33.3994 13.6009 33.3132C13.6676 33.2269 13.7125 33.1258 13.7318 33.0185C13.7714 32.8004 13.6988 32.5791 13.5435 32.4239L10.1543 29.0413ZM7.3234 24.5092C7.45884 24.5092 7.59427 24.4662 7.70989 24.387C7.89157 24.2614 8.00058 24.0533 8.00058 23.832L7.99727 19.0455C7.99729 18.9368 7.97104 18.8296 7.92076 18.7331C7.87048 18.6367 7.79765 18.5538 7.70846 18.4915C7.61927 18.4293 7.51637 18.3894 7.4085 18.3755C7.30062 18.3615 7.19097 18.3738 7.08887 18.4113L0.601203 20.8062C0.471304 20.8538 0.359162 20.9402 0.27994 21.0536C0.200717 21.167 0.158234 21.3021 0.158234 21.4404C0.158234 21.5788 0.200717 21.7138 0.27994 21.8272C0.359162 21.9407 0.471304 22.027 0.601203 22.0746L7.09217 24.4662C7.16815 24.496 7.24412 24.5092 7.3234 24.5092ZM9.06754 13.6446C9.11329 13.7436 9.18226 13.8301 9.26859 13.8967C9.35492 13.9633 9.45606 14.0081 9.56341 14.0272C9.67076 14.0464 9.78114 14.0393 9.88517 14.0066C9.9892 13.9739 10.0838 13.9166 10.1609 13.8395L13.5435 10.4537C13.6988 10.2951 13.7681 10.0738 13.7285 9.85577C13.6888 9.64106 13.5468 9.45608 13.3453 9.36358L7.06244 6.4699C6.80478 6.35098 6.50419 6.40714 6.30268 6.60864C6.10118 6.81014 6.04833 7.11074 6.16725 7.36839L9.06754 13.6446Z" fill="url(#paint0_radial_1_9)"/>
<path d="M18.7495 8.29662H23.536C23.7573 8.29662 23.9621 8.18761 24.0909 8.00593C24.2164 7.82755 24.2462 7.59302 24.1702 7.38491L21.7753 0.903853C21.6762 0.636287 21.4252 0.461212 21.1411 0.461212C20.857 0.461212 20.6059 0.63959 20.5068 0.903853L18.112 7.38821C18.036 7.59632 18.0657 7.82755 18.1912 8.00923C18.3201 8.19091 18.5282 8.29662 18.7495 8.29662ZM32.1278 13.8395C32.2533 13.9684 32.4284 14.0377 32.6035 14.0377C32.6431 14.0377 32.6828 14.0344 32.7224 14.0278C32.9404 13.9882 33.1221 13.8461 33.2179 13.6446L36.1116 7.36509C36.2305 7.10743 36.1744 6.80684 35.9762 6.60533C35.7747 6.40383 35.4707 6.35098 35.2131 6.4666L28.9368 9.36358C28.7353 9.45608 28.5933 9.64106 28.5537 9.85908C28.514 10.0771 28.5867 10.2984 28.7386 10.457L32.1278 13.8395ZM41.6809 20.8062L35.1933 18.4146C34.9852 18.3386 34.7539 18.3684 34.5723 18.4939C34.3906 18.6194 34.2849 18.8242 34.2849 19.0455L34.2882 23.832C34.2882 24.0533 34.3972 24.2614 34.5789 24.387C34.6945 24.4629 34.8299 24.5059 34.9653 24.5059C35.0446 24.5059 35.1239 24.4927 35.1999 24.4629L41.6875 22.0713C41.9518 21.9756 42.1302 21.7212 42.1302 21.4338C42.1236 21.1563 41.9485 20.9053 41.6809 20.8062ZM33.2179 29.2362C33.1723 29.1371 33.1034 29.0506 33.0171 28.9839C32.9309 28.9171 32.8298 28.8723 32.7224 28.853C32.5044 28.8167 32.2798 28.886 32.1278 29.0413L28.7419 32.4272C28.5867 32.5824 28.514 32.807 28.5537 33.0251C28.5933 33.2398 28.7353 33.4281 28.9368 33.5206L35.2164 36.4142C35.3056 36.4572 35.4014 36.4737 35.5005 36.4737C35.6756 36.4737 35.8473 36.4043 35.9762 36.2755C36.1777 36.074 36.2305 35.7734 36.1116 35.5157L33.2179 29.2362ZM23.5327 34.5809L18.7462 34.5842C18.5249 34.5842 18.3201 34.6932 18.1945 34.8749C18.069 35.0566 18.0393 35.2878 18.112 35.4926L20.5068 41.9803C20.6059 42.2445 20.857 42.4229 21.1411 42.4229C21.4252 42.4229 21.6762 42.2445 21.7753 41.9803L24.1702 35.4926C24.2462 35.2845 24.2164 35.0533 24.0909 34.8716C23.9621 34.6899 23.7573 34.5809 23.5327 34.5809ZM10.1543 29.0413C9.99907 28.886 9.77775 28.8167 9.55973 28.853C9.34171 28.8926 9.15673 29.0347 9.06424 29.2362L6.17055 35.5157C6.05163 35.7734 6.10779 36.0773 6.30929 36.2755C6.40677 36.3732 6.53194 36.4387 6.66784 36.4629C6.80374 36.4871 6.9438 36.469 7.06905 36.4109L13.3486 33.514C13.4477 33.4683 13.5342 33.3994 13.6009 33.3132C13.6676 33.2269 13.7125 33.1258 13.7318 33.0185C13.7714 32.8004 13.6988 32.5791 13.5435 32.4239L10.1543 29.0413ZM7.3234 24.5092C7.45884 24.5092 7.59427 24.4662 7.70989 24.387C7.89157 24.2614 8.00058 24.0533 8.00058 23.832L7.99727 19.0455C7.99729 18.9368 7.97104 18.8296 7.92076 18.7331C7.87048 18.6367 7.79765 18.5538 7.70846 18.4915C7.61927 18.4293 7.51637 18.3894 7.4085 18.3755C7.30062 18.3615 7.19097 18.3738 7.08887 18.4113L0.601203 20.8062C0.471304 20.8538 0.359162 20.9402 0.27994 21.0536C0.200717 21.167 0.158234 21.3021 0.158234 21.4404C0.158234 21.5788 0.200717 21.7138 0.27994 21.8272C0.359162 21.9407 0.471304 22.027 0.601203 22.0746L7.09217 24.4662C7.16815 24.496 7.24412 24.5092 7.3234 24.5092ZM9.06754 13.6446C9.11329 13.7436 9.18226 13.8301 9.26859 13.8967C9.35492 13.9633 9.45606 14.0081 9.56341 14.0272C9.67076 14.0464 9.78114 14.0393 9.88517 14.0066C9.9892 13.9739 10.0838 13.9166 10.1609 13.8395L13.5435 10.4537C13.6988 10.2951 13.7681 10.0738 13.7285 9.85577C13.6888 9.64106 13.5468 9.45608 13.3453 9.36358L7.06244 6.4699C6.80478 6.35098 6.50419 6.40714 6.30268 6.60864C6.10118 6.81014 6.04833 7.11074 6.16725 7.36839L9.06754 13.6446Z" fill="url(#paint1_radial_1_9)"/>
<path d="M18.7495 8.29662H23.536C23.7573 8.29662 23.9621 8.18761 24.0909 8.00593C24.2164 7.82755 24.2462 7.59302 24.1702 7.38491L21.7753 0.903853C21.6762 0.636287 21.4252 0.461212 21.1411 0.461212C20.857 0.461212 20.6059 0.63959 20.5068 0.903853L18.112 7.38821C18.036 7.59632 18.0657 7.82755 18.1912 8.00923C18.3201 8.19091 18.5282 8.29662 18.7495 8.29662ZM32.1278 13.8395C32.2533 13.9684 32.4284 14.0377 32.6035 14.0377C32.6431 14.0377 32.6828 14.0344 32.7224 14.0278C32.9404 13.9882 33.1221 13.8461 33.2179 13.6446L36.1116 7.36509C36.2305 7.10743 36.1744 6.80684 35.9762 6.60533C35.7747 6.40383 35.4707 6.35098 35.2131 6.4666L28.9368 9.36358C28.7353 9.45608 28.5933 9.64106 28.5537 9.85908C28.514 10.0771 28.5867 10.2984 28.7386 10.457L32.1278 13.8395ZM41.6809 20.8062L35.1933 18.4146C34.9852 18.3386 34.7539 18.3684 34.5723 18.4939C34.3906 18.6194 34.2849 18.8242 34.2849 19.0455L34.2882 23.832C34.2882 24.0533 34.3972 24.2614 34.5789 24.387C34.6945 24.4629 34.8299 24.5059 34.9653 24.5059C35.0446 24.5059 35.1239 24.4927 35.1999 24.4629L41.6875 22.0713C41.9518 21.9756 42.1302 21.7212 42.1302 21.4338C42.1236 21.1563 41.9485 20.9053 41.6809 20.8062ZM33.2179 29.2362C33.1723 29.1371 33.1034 29.0506 33.0171 28.9839C32.9309 28.9171 32.8298 28.8723 32.7224 28.853C32.5044 28.8167 32.2798 28.886 32.1278 29.0413L28.7419 32.4272C28.5867 32.5824 28.514 32.807 28.5537 33.0251C28.5933 33.2398 28.7353 33.4281 28.9368 33.5206L35.2164 36.4142C35.3056 36.4572 35.4014 36.4737 35.5005 36.4737C35.6756 36.4737 35.8473 36.4043 35.9762 36.2755C36.1777 36.074 36.2305 35.7734 36.1116 35.5157L33.2179 29.2362ZM23.5327 34.5809L18.7462 34.5842C18.5249 34.5842 18.3201 34.6932 18.1945 34.8749C18.069 35.0566 18.0393 35.2878 18.112 35.4926L20.5068 41.9803C20.6059 42.2445 20.857 42.4229 21.1411 42.4229C21.4252 42.4229 21.6762 42.2445 21.7753 41.9803L24.1702 35.4926C24.2462 35.2845 24.2164 35.0533 24.0909 34.8716C23.9621 34.6899 23.7573 34.5809 23.5327 34.5809ZM10.1543 29.0413C9.99907 28.886 9.77775 28.8167 9.55973 28.853C9.34171 28.8926 9.15673 29.0347 9.06424 29.2362L6.17055 35.5157C6.05163 35.7734 6.10779 36.0773 6.30929 36.2755C6.40677 36.3732 6.53194 36.4387 6.66784 36.4629C6.80374 36.4871 6.9438 36.469 7.06905 36.4109L13.3486 33.514C13.4477 33.4683 13.5342 33.3994 13.6009 33.3132C13.6676 33.2269 13.7125 33.1258 13.7318 33.0185C13.7714 32.8004 13.6988 32.5791 13.5435 32.4239L10.1543 29.0413ZM7.3234 24.5092C7.45884 24.5092 7.59427 24.4662 7.70989 24.387C7.89157 24.2614 8.00058 24.0533 8.00058 23.832L7.99727 19.0455C7.99729 18.9368 7.97104 18.8296 7.92076 18.7331C7.87048 18.6367 7.79765 18.5538 7.70846 18.4915C7.61927 18.4293 7.51637 18.3894 7.4085 18.3755C7.30062 18.3615 7.19097 18.3738 7.08887 18.4113L0.601203 20.8062C0.471304 20.8538 0.359162 20.9402 0.27994 21.0536C0.200717 21.167 0.158234 21.3021 0.158234 21.4404C0.158234 21.5788 0.200717 21.7138 0.27994 21.8272C0.359162 21.9407 0.471304 22.027 0.601203 22.0746L7.09217 24.4662C7.16815 24.496 7.24412 24.5092 7.3234 24.5092ZM9.06754 13.6446C9.11329 13.7436 9.18226 13.8301 9.26859 13.8967C9.35492 13.9633 9.45606 14.0081 9.56341 14.0272C9.67076 14.0464 9.78114 14.0393 9.88517 14.0066C9.9892 13.9739 10.0838 13.9166 10.1609 13.8395L13.5435 10.4537C13.6988 10.2951 13.7681 10.0738 13.7285 9.85577C13.6888 9.64106 13.5468 9.45608 13.3453 9.36358L7.06244 6.4699C6.80478 6.35098 6.50419 6.40714 6.30268 6.60864C6.10118 6.81014 6.04833 7.11074 6.16725 7.36839L9.06754 13.6446Z" fill="url(#paint2_radial_1_9)"/>
<g clip-path="url(#clip1_1_9)">
<path d="M21.279 22.1255H31.0103C30.9521 24.7211 29.8963 27.1905 28.0686 29.0053C26.2409 30.8201 23.7867 31.8362 21.2309 31.8362C18.6751 31.8362 16.2208 30.8201 14.3932 29.0053C12.5655 27.1905 11.5096 24.7211 11.4514 22.1255C11.4608 19.4831 12.5 16.952 14.3418 15.0859C16.1835 13.2198 18.6778 12.1707 21.279 12.168C22.3813 12.1929 23.4729 12.3928 24.5144 12.7604L21.279 22.1255ZM30.914 20.611H32.5823C32.6524 18.6409 32.0777 16.7028 30.9483 15.0997C29.8188 13.4966 28.1982 12.3189 26.3399 11.7507L25.8328 13.3528L23.2466 20.611H30.914Z" fill="#001A7A"/>
<path d="M21.279 22.1255H31.0103C30.9521 24.7211 29.8963 27.1905 28.0686 29.0053C26.2409 30.8201 23.7867 31.8362 21.2309 31.8362C18.6751 31.8362 16.2208 30.8201 14.3932 29.0053C12.5655 27.1905 11.5096 24.7211 11.4514 22.1255C11.4608 19.4831 12.5 16.952 14.3418 15.0859C16.1835 13.2198 18.6778 12.1707 21.279 12.168C22.3813 12.1929 23.4729 12.3928 24.5144 12.7604L21.279 22.1255ZM30.914 20.611H32.5823C32.6524 18.6409 32.0777 16.7028 30.9483 15.0997C29.8188 13.4966 28.1982 12.3189 26.3399 11.7507L25.8328 13.3528L23.2466 20.611H30.914Z" fill="url(#paint3_radial_1_9)"/>
<path d="M21.279 22.1255H31.0103C30.9521 24.7211 29.8963 27.1905 28.0686 29.0053C26.2409 30.8201 23.7867 31.8362 21.2309 31.8362C18.6751 31.8362 16.2208 30.8201 14.3932 29.0053C12.5655 27.1905 11.5096 24.7211 11.4514 22.1255C11.4608 19.4831 12.5 16.952 14.3418 15.0859C16.1835 13.2198 18.6778 12.1707 21.279 12.168C22.3813 12.1929 23.4729 12.3928 24.5144 12.7604L21.279 22.1255ZM30.914 20.611H32.5823C32.6524 18.6409 32.0777 16.7028 30.9483 15.0997C29.8188 13.4966 28.1982 12.3189 26.3399 11.7507L25.8328 13.3528L23.2466 20.611H30.914Z" fill="url(#paint4_radial_1_9)"/>
<path d="M21.279 22.1255H31.0103C30.9521 24.7211 29.8963 27.1905 28.0686 29.0053C26.2409 30.8201 23.7867 31.8362 21.2309 31.8362C18.6751 31.8362 16.2208 30.8201 14.3932 29.0053C12.5655 27.1905 11.5096 24.7211 11.4514 22.1255C11.4608 19.4831 12.5 16.952 14.3418 15.0859C16.1835 13.2198 18.6778 12.1707 21.279 12.168C22.3813 12.1929 23.4729 12.3928 24.5144 12.7604L21.279 22.1255ZM30.914 20.611H32.5823C32.6524 18.6409 32.0777 16.7028 30.9483 15.0997C29.8188 13.4966 28.1982 12.3189 26.3399 11.7507L25.8328 13.3528L23.2466 20.611H30.914Z" fill="url(#paint5_radial_1_9)"/>
</g>
</g>
<path d="M54.0388 14.1359H55.1882L60.1749 26.0188L65.1709 14.1359H66.311L60.6105 27.6317H59.7393L54.0388 14.1359ZM53.6866 14.1359H54.6969L54.8174 21.7365V27.6317H53.6866V14.1359ZM65.6714 14.1359H66.6818V27.6317H65.5417V21.7365L65.6714 14.1359ZM80.0755 20.1608V21.6068C80.0755 22.5522 79.9519 23.4081 79.7047 24.1743C79.4638 24.9344 79.1115 25.5863 78.6481 26.1301C78.1908 26.6739 77.6408 27.091 76.9982 27.3814C76.3555 27.6718 75.6326 27.817 74.8292 27.817C74.0445 27.817 73.3277 27.6718 72.6788 27.3814C72.0362 27.091 71.4831 26.6739 71.0197 26.1301C70.5562 25.5863 70.1978 24.9344 69.9445 24.1743C69.6911 23.4081 69.5644 22.5522 69.5644 21.6068V20.1608C69.5644 19.2154 69.688 18.3626 69.9352 17.6026C70.1885 16.8363 70.5469 16.1813 71.0104 15.6375C71.4738 15.0937 72.0269 14.6766 72.6696 14.3862C73.3122 14.0958 74.0259 13.9506 74.8107 13.9506C75.614 13.9506 76.337 14.0958 76.9797 14.3862C77.6223 14.6766 78.1754 15.0937 78.6388 15.6375C79.1023 16.1813 79.4576 16.8363 79.7047 17.6026C79.9519 18.3626 80.0755 19.2154 80.0755 20.1608ZM78.9447 21.6068V20.1423C78.9447 19.3451 78.852 18.6283 78.6666 17.9919C78.4874 17.3554 78.2186 16.8116 77.8602 16.3605C77.508 15.9094 77.0754 15.5634 76.5625 15.3224C76.0497 15.0814 75.4657 14.9609 74.8107 14.9609C74.1742 14.9609 73.6026 15.0814 73.0959 15.3224C72.5892 15.5634 72.1567 15.9094 71.7983 16.3605C71.446 16.8116 71.1741 17.3554 70.9826 17.9919C70.7972 18.6283 70.7045 19.3451 70.7045 20.1423V21.6068C70.7045 22.4101 70.7972 23.1331 70.9826 23.7757C71.1741 24.4122 71.4491 24.9591 71.8075 25.4164C72.1659 25.8674 72.5985 26.2135 73.1052 26.4545C73.6181 26.6955 74.1928 26.816 74.8292 26.816C75.4904 26.816 76.0744 26.6955 76.5811 26.4545C77.0878 26.2135 77.5173 25.8674 77.8695 25.4164C78.2217 24.9591 78.4874 24.4122 78.6666 23.7757C78.852 23.1331 78.9447 22.4101 78.9447 21.6068ZM93.0058 14.1359V27.6317H91.8565L84.0983 16.101V27.6317H82.9582V14.1359H84.0983L91.875 25.6666V14.1359H93.0058ZM97.8442 14.1359V27.6317H96.7042V14.1359H97.8442ZM105.76 14.1359V27.6317H104.629V14.1359H105.76ZM110.385 14.1359V15.1185H100.013V14.1359H110.385ZM122.287 20.1608V21.6068C122.287 22.5522 122.163 23.4081 121.916 24.1743C121.675 24.9344 121.323 25.5863 120.859 26.1301C120.402 26.6739 119.852 27.091 119.209 27.3814C118.567 27.6718 117.844 27.817 117.04 27.817C116.256 27.817 115.539 27.6718 114.89 27.3814C114.247 27.091 113.694 26.6739 113.231 26.1301C112.767 25.5863 112.409 24.9344 112.156 24.1743C111.902 23.4081 111.776 22.5522 111.776 21.6068V20.1608C111.776 19.2154 111.899 18.3626 112.146 17.6026C112.4 16.8363 112.758 16.1813 113.222 15.6375C113.685 15.0937 114.238 14.6766 114.881 14.3862C115.523 14.0958 116.237 13.9506 117.022 13.9506C117.825 13.9506 118.548 14.0958 119.191 14.3862C119.833 14.6766 120.387 15.0937 120.85 15.6375C121.313 16.1813 121.669 16.8363 121.916 17.6026C122.163 18.3626 122.287 19.2154 122.287 20.1608ZM121.156 21.6068V20.1423C121.156 19.3451 121.063 18.6283 120.878 17.9919C120.699 17.3554 120.43 16.8116 120.071 16.3605C119.719 15.9094 119.287 15.5634 118.774 15.3224C118.261 15.0814 117.677 14.9609 117.022 14.9609C116.385 14.9609 115.814 15.0814 115.307 15.3224C114.8 15.5634 114.368 15.9094 114.009 16.3605C113.657 16.8116 113.385 17.3554 113.194 17.9919C113.008 18.6283 112.916 19.3451 112.916 20.1423V21.6068C112.916 22.4101 113.008 23.1331 113.194 23.7757C113.385 24.4122 113.66 24.9591 114.019 25.4164C114.377 25.8674 114.81 26.2135 115.316 26.4545C115.829 26.6955 116.404 26.816 117.04 26.816C117.702 26.816 118.286 26.6955 118.792 26.4545C119.299 26.2135 119.728 25.8674 120.081 25.4164C120.433 24.9591 120.699 24.4122 120.878 23.7757C121.063 23.1331 121.156 22.4101 121.156 21.6068ZM125.142 14.1359H129.526C130.459 14.1359 131.268 14.2873 131.954 14.5901C132.64 14.8929 133.169 15.3409 133.539 15.9341C133.916 16.5212 134.105 17.2442 134.105 18.1031C134.105 18.7396 133.969 19.3173 133.697 19.8364C133.431 20.3555 133.063 20.7911 132.594 21.1433C132.124 21.4894 131.58 21.7273 130.962 21.857L130.564 22.0054H125.883L125.865 21.0321H129.785C130.49 21.0321 131.077 20.8962 131.546 20.6243C132.016 20.3524 132.368 19.994 132.603 19.5491C132.844 19.098 132.965 18.616 132.965 18.1031C132.965 17.4913 132.832 16.963 132.566 16.5181C132.307 16.067 131.92 15.7209 131.407 15.48C130.895 15.239 130.267 15.1185 129.526 15.1185H126.282V27.6317H125.142V14.1359ZM133.474 27.6317L129.98 21.5975L131.203 21.5882L134.689 27.5112V27.6317H133.474ZM141.668 14.9423L136.997 27.6317H135.81L140.908 14.1359H141.733L141.668 14.9423ZM145.913 27.6317L141.233 14.9423L141.168 14.1359H141.993L147.1 27.6317H145.913ZM145.079 22.8674V23.8499H137.914V22.8674H145.079ZM149.454 14.1359H150.604L155.59 26.0188L160.586 14.1359H161.726L156.026 27.6317H155.155L149.454 14.1359ZM149.102 14.1359H150.112L150.233 21.7365V27.6317H149.102V14.1359ZM161.087 14.1359H162.097V27.6317H160.957V21.7365L161.087 14.1359ZM173.915 26.6584V27.6317H166.324V26.6584H173.915ZM166.667 14.1359V27.6317H165.527V14.1359H166.667ZM172.97 20.1886V21.1619H166.324V20.1886H172.97ZM173.869 14.1359V15.1185H166.324V14.1359H173.869ZM186.382 14.1359V27.6317H185.233L177.475 16.101V27.6317H176.334V14.1359H177.475L185.251 25.6666V14.1359H186.382ZM194.075 14.1359V27.6317H192.945V14.1359H194.075ZM198.701 14.1359V15.1185H188.329V14.1359H198.701ZM210.602 20.1608V21.6068C210.602 22.5522 210.478 23.4081 210.231 24.1743C209.99 24.9344 209.638 25.5863 209.175 26.1301C208.717 26.6739 208.167 27.091 207.525 27.3814C206.882 27.6718 206.159 27.817 205.356 27.817C204.571 27.817 203.854 27.6718 203.205 27.3814C202.563 27.091 202.01 26.6739 201.546 26.1301C201.083 25.5863 200.724 24.9344 200.471 24.1743C200.218 23.4081 200.091 22.5522 200.091 21.6068V20.1608C200.091 19.2154 200.215 18.3626 200.462 17.6026C200.715 16.8363 201.073 16.1813 201.537 15.6375C202 15.0937 202.553 14.6766 203.196 14.3862C203.839 14.0958 204.552 13.9506 205.337 13.9506C206.141 13.9506 206.864 14.0958 207.506 14.3862C208.149 14.6766 208.702 15.0937 209.165 15.6375C209.629 16.1813 209.984 16.8363 210.231 17.6026C210.478 18.3626 210.602 19.2154 210.602 20.1608ZM209.471 21.6068V20.1423C209.471 19.3451 209.379 18.6283 209.193 17.9919C209.014 17.3554 208.745 16.8116 208.387 16.3605C208.035 15.9094 207.602 15.5634 207.089 15.3224C206.576 15.0814 205.992 14.9609 205.337 14.9609C204.701 14.9609 204.129 15.0814 203.622 15.3224C203.116 15.5634 202.683 15.9094 202.325 16.3605C201.973 16.8116 201.701 17.3554 201.509 17.9919C201.324 18.6283 201.231 19.3451 201.231 20.1423V21.6068C201.231 22.4101 201.324 23.1331 201.509 23.7757C201.701 24.4122 201.976 24.9591 202.334 25.4164C202.692 25.8674 203.125 26.2135 203.632 26.4545C204.145 26.6955 204.719 26.816 205.356 26.816C206.017 26.816 206.601 26.6955 207.108 26.4545C207.614 26.2135 208.044 25.8674 208.396 25.4164C208.748 24.9591 209.014 24.4122 209.193 23.7757C209.379 23.1331 209.471 22.4101 209.471 21.6068Z" fill="#495057"/>
<path d="M228.306 20.5779V25.9262C228.096 26.1795 227.771 26.4545 227.333 26.7511C226.894 27.0415 226.328 27.2918 225.636 27.5019C224.944 27.712 224.107 27.817 223.124 27.817C222.253 27.817 221.459 27.6749 220.742 27.3907C220.026 27.1002 219.408 26.6769 218.889 26.1208C218.376 25.5647 217.98 24.8849 217.702 24.0816C217.424 23.2721 217.285 22.3483 217.285 21.3102V20.4667C217.285 19.4286 217.418 18.5047 217.684 17.6952C217.955 16.8858 218.342 16.2029 218.842 15.6468C219.343 15.0907 219.939 14.6674 220.631 14.3769C221.323 14.0865 222.093 13.9413 222.939 13.9413C224.113 13.9413 225.077 14.1329 225.831 14.516C226.585 14.8929 227.16 15.4182 227.555 16.0917C227.957 16.7591 228.204 17.5253 228.297 18.3904H225.599C225.531 17.9332 225.402 17.5346 225.21 17.1947C225.018 16.8549 224.743 16.5891 224.385 16.3976C224.033 16.206 223.576 16.1102 223.013 16.1102C222.55 16.1102 222.136 16.206 221.771 16.3976C221.413 16.583 221.11 16.8579 220.863 17.2225C220.616 17.5871 220.427 18.0382 220.297 18.5758C220.168 19.1134 220.103 19.7375 220.103 20.4482V21.3102C220.103 22.0146 220.171 22.6387 220.307 23.1825C220.443 23.7201 220.643 24.1743 220.909 24.5451C221.181 24.9096 221.515 25.1846 221.91 25.37C222.306 25.5554 222.766 25.6481 223.291 25.6481C223.73 25.6481 224.095 25.611 224.385 25.5369C224.682 25.4627 224.92 25.3731 225.099 25.268C225.284 25.1568 225.426 25.0518 225.525 24.9529V22.5615H222.985V20.5779H228.306ZM239.605 25.4627V27.6317H232.421V25.4627H239.605ZM233.33 14.1359V27.6317H230.549V14.1359H233.33ZM238.669 19.6325V21.7458H232.421V19.6325H238.669ZM239.596 14.1359V16.3142H232.421V14.1359H239.596ZM252.211 14.1359V27.6317H249.43L244.008 18.5851V27.6317H241.227V14.1359H244.008L249.439 23.1918V14.1359H252.211ZM256.224 14.1359L259.042 20.2906L261.86 14.1359H264.891L260.451 22.7191V27.6317H257.633V22.7191L253.184 14.1359H256.224ZM268.543 14.1359L271.082 18.8446L273.622 14.1359H276.801L272.881 20.8282L276.903 27.6317H273.696L271.082 22.8303L268.469 27.6317H265.243L269.275 20.8282L265.345 14.1359H268.543Z" fill="#001A7A"/>
<path d="M228.306 20.5779V25.9262C228.096 26.1795 227.771 26.4545 227.333 26.7511C226.894 27.0415 226.328 27.2918 225.636 27.5019C224.944 27.712 224.107 27.817 223.124 27.817C222.253 27.817 221.459 27.6749 220.742 27.3907C220.026 27.1002 219.408 26.6769 218.889 26.1208C218.376 25.5647 217.98 24.8849 217.702 24.0816C217.424 23.2721 217.285 22.3483 217.285 21.3102V20.4667C217.285 19.4286 217.418 18.5047 217.684 17.6952C217.955 16.8858 218.342 16.2029 218.842 15.6468C219.343 15.0907 219.939 14.6674 220.631 14.3769C221.323 14.0865 222.093 13.9413 222.939 13.9413C224.113 13.9413 225.077 14.1329 225.831 14.516C226.585 14.8929 227.16 15.4182 227.555 16.0917C227.957 16.7591 228.204 17.5253 228.297 18.3904H225.599C225.531 17.9332 225.402 17.5346 225.21 17.1947C225.018 16.8549 224.743 16.5891 224.385 16.3976C224.033 16.206 223.576 16.1102 223.013 16.1102C222.55 16.1102 222.136 16.206 221.771 16.3976C221.413 16.583 221.11 16.8579 220.863 17.2225C220.616 17.5871 220.427 18.0382 220.297 18.5758C220.168 19.1134 220.103 19.7375 220.103 20.4482V21.3102C220.103 22.0146 220.171 22.6387 220.307 23.1825C220.443 23.7201 220.643 24.1743 220.909 24.5451C221.181 24.9096 221.515 25.1846 221.91 25.37C222.306 25.5554 222.766 25.6481 223.291 25.6481C223.73 25.6481 224.095 25.611 224.385 25.5369C224.682 25.4627 224.92 25.3731 225.099 25.268C225.284 25.1568 225.426 25.0518 225.525 24.9529V22.5615H222.985V20.5779H228.306ZM239.605 25.4627V27.6317H232.421V25.4627H239.605ZM233.33 14.1359V27.6317H230.549V14.1359H233.33ZM238.669 19.6325V21.7458H232.421V19.6325H238.669ZM239.596 14.1359V16.3142H232.421V14.1359H239.596ZM252.211 14.1359V27.6317H249.43L244.008 18.5851V27.6317H241.227V14.1359H244.008L249.439 23.1918V14.1359H252.211ZM256.224 14.1359L259.042 20.2906L261.86 14.1359H264.891L260.451 22.7191V27.6317H257.633V22.7191L253.184 14.1359H256.224ZM268.543 14.1359L271.082 18.8446L273.622 14.1359H276.801L272.881 20.8282L276.903 27.6317H273.696L271.082 22.8303L268.469 27.6317H265.243L269.275 20.8282L265.345 14.1359H268.543Z" fill="url(#paint6_radial_1_9)"/>
<path d="M228.306 20.5779V25.9262C228.096 26.1795 227.771 26.4545 227.333 26.7511C226.894 27.0415 226.328 27.2918 225.636 27.5019C224.944 27.712 224.107 27.817 223.124 27.817C222.253 27.817 221.459 27.6749 220.742 27.3907C220.026 27.1002 219.408 26.6769 218.889 26.1208C218.376 25.5647 217.98 24.8849 217.702 24.0816C217.424 23.2721 217.285 22.3483 217.285 21.3102V20.4667C217.285 19.4286 217.418 18.5047 217.684 17.6952C217.955 16.8858 218.342 16.2029 218.842 15.6468C219.343 15.0907 219.939 14.6674 220.631 14.3769C221.323 14.0865 222.093 13.9413 222.939 13.9413C224.113 13.9413 225.077 14.1329 225.831 14.516C226.585 14.8929 227.16 15.4182 227.555 16.0917C227.957 16.7591 228.204 17.5253 228.297 18.3904H225.599C225.531 17.9332 225.402 17.5346 225.21 17.1947C225.018 16.8549 224.743 16.5891 224.385 16.3976C224.033 16.206 223.576 16.1102 223.013 16.1102C222.55 16.1102 222.136 16.206 221.771 16.3976C221.413 16.583 221.11 16.8579 220.863 17.2225C220.616 17.5871 220.427 18.0382 220.297 18.5758C220.168 19.1134 220.103 19.7375 220.103 20.4482V21.3102C220.103 22.0146 220.171 22.6387 220.307 23.1825C220.443 23.7201 220.643 24.1743 220.909 24.5451C221.181 24.9096 221.515 25.1846 221.91 25.37C222.306 25.5554 222.766 25.6481 223.291 25.6481C223.73 25.6481 224.095 25.611 224.385 25.5369C224.682 25.4627 224.92 25.3731 225.099 25.268C225.284 25.1568 225.426 25.0518 225.525 24.9529V22.5615H222.985V20.5779H228.306ZM239.605 25.4627V27.6317H232.421V25.4627H239.605ZM233.33 14.1359V27.6317H230.549V14.1359H233.33ZM238.669 19.6325V21.7458H232.421V19.6325H238.669ZM239.596 14.1359V16.3142H232.421V14.1359H239.596ZM252.211 14.1359V27.6317H249.43L244.008 18.5851V27.6317H241.227V14.1359H244.008L249.439 23.1918V14.1359H252.211ZM256.224 14.1359L259.042 20.2906L261.86 14.1359H264.891L260.451 22.7191V27.6317H257.633V22.7191L253.184 14.1359H256.224ZM268.543 14.1359L271.082 18.8446L273.622 14.1359H276.801L272.881 20.8282L276.903 27.6317H273.696L271.082 22.8303L268.469 27.6317H265.243L269.275 20.8282L265.345 14.1359H268.543Z" fill="url(#paint7_radial_1_9)"/>
<path d="M228.306 20.5779V25.9262C228.096 26.1795 227.771 26.4545 227.333 26.7511C226.894 27.0415 226.328 27.2918 225.636 27.5019C224.944 27.712 224.107 27.817 223.124 27.817C222.253 27.817 221.459 27.6749 220.742 27.3907C220.026 27.1002 219.408 26.6769 218.889 26.1208C218.376 25.5647 217.98 24.8849 217.702 24.0816C217.424 23.2721 217.285 22.3483 217.285 21.3102V20.4667C217.285 19.4286 217.418 18.5047 217.684 17.6952C217.955 16.8858 218.342 16.2029 218.842 15.6468C219.343 15.0907 219.939 14.6674 220.631 14.3769C221.323 14.0865 222.093 13.9413 222.939 13.9413C224.113 13.9413 225.077 14.1329 225.831 14.516C226.585 14.8929 227.16 15.4182 227.555 16.0917C227.957 16.7591 228.204 17.5253 228.297 18.3904H225.599C225.531 17.9332 225.402 17.5346 225.21 17.1947C225.018 16.8549 224.743 16.5891 224.385 16.3976C224.033 16.206 223.576 16.1102 223.013 16.1102C222.55 16.1102 222.136 16.206 221.771 16.3976C221.413 16.583 221.11 16.8579 220.863 17.2225C220.616 17.5871 220.427 18.0382 220.297 18.5758C220.168 19.1134 220.103 19.7375 220.103 20.4482V21.3102C220.103 22.0146 220.171 22.6387 220.307 23.1825C220.443 23.7201 220.643 24.1743 220.909 24.5451C221.181 24.9096 221.515 25.1846 221.91 25.37C222.306 25.5554 222.766 25.6481 223.291 25.6481C223.73 25.6481 224.095 25.611 224.385 25.5369C224.682 25.4627 224.92 25.3731 225.099 25.268C225.284 25.1568 225.426 25.0518 225.525 24.9529V22.5615H222.985V20.5779H228.306ZM239.605 25.4627V27.6317H232.421V25.4627H239.605ZM233.33 14.1359V27.6317H230.549V14.1359H233.33ZM238.669 19.6325V21.7458H232.421V19.6325H238.669ZM239.596 14.1359V16.3142H232.421V14.1359H239.596ZM252.211 14.1359V27.6317H249.43L244.008 18.5851V27.6317H241.227V14.1359H244.008L249.439 23.1918V14.1359H252.211ZM256.224 14.1359L259.042 20.2906L261.86 14.1359H264.891L260.451 22.7191V27.6317H257.633V22.7191L253.184 14.1359H256.224ZM268.543 14.1359L271.082 18.8446L273.622 14.1359H276.801L272.881 20.8282L276.903 27.6317H273.696L271.082 22.8303L268.469 27.6317H265.243L269.275 20.8282L265.345 14.1359H268.543Z" fill="url(#paint8_radial_1_9)"/>
<defs>
<radialGradient id="paint0_radial_1_9" cx="0" cy="0" r="1" gradientUnits="userSpaceOnUse" gradientTransform="translate(0.158234 42.4229) rotate(-52.4168) scale(36.6974 42.3113)">
<stop stop-color="#001A7A"/>
<stop offset="1" stop-color="#001A7A" stop-opacity="0"/>
</radialGradient>
<radialGradient id="paint1_radial_1_9" cx="0" cy="0" r="1" gradientUnits="userSpaceOnUse" gradientTransform="translate(41.4955 42.4229) rotate(-125.125) scale(42.6878 44.3689)">
<stop stop-color="#2BA1CF"/>
<stop offset="1" stop-color="#2BA1CF" stop-opacity="0"/>
</radialGradient>
<radialGradient id="paint2_radial_1_9" cx="0" cy="0" r="1" gradientUnits="userSpaceOnUse" gradientTransform="translate(12.1 -22.9211) rotate(72.1198) scale(93.8127 59.7352)">
<stop stop-color="#26FF26"/>
<stop offset="1" stop-color="#001A7A" stop-opacity="0"/>
</radialGradient>
<radialGradient id="paint3_radial_1_9" cx="0" cy="0" r="1" gradientUnits="userSpaceOnUse" gradientTransform="translate(11.4514 31.8362) rotate(-51.0023) scale(17.9114 20.8962)">
<stop stop-color="#001A7A"/>
<stop offset="1" stop-color="#001A7A" stop-opacity="0"/>
</radialGradient>
<radialGradient id="paint4_radial_1_9" cx="0" cy="0" r="1" gradientUnits="userSpaceOnUse" gradientTransform="translate(32.2685 31.8362) rotate(-126.506) scale(20.7913 21.9587)">
<stop stop-color="#2BA1CF"/>
<stop offset="1" stop-color="#2BA1CF" stop-opacity="0"/>
</radialGradient>
<radialGradient id="paint5_radial_1_9" cx="0" cy="0" r="1" gradientUnits="userSpaceOnUse" gradientTransform="translate(17.4652 0.558532) rotate(71.2522) scale(45.1302 29.9317)">
<stop stop-color="#26FF26"/>
<stop offset="1" stop-color="#001A7A" stop-opacity="0"/>
</radialGradient>
<radialGradient id="paint6_radial_1_9" cx="0" cy="0" r="1" gradientUnits="userSpaceOnUse" gradientTransform="translate(51.9718 30.6317) rotate(-5.90967) scale(121.162 29.6001)">
<stop stop-color="#001A7A"/>
<stop offset="1" stop-color="#001A7A" stop-opacity="0"/>
</radialGradient>
<radialGradient id="paint7_radial_1_9" cx="0" cy="0" r="1" gradientUnits="userSpaceOnUse" gradientTransform="translate(274.554 30.6317) rotate(-173.539) scale(133.096 32.8689)">
<stop stop-color="#2BA1CF"/>
<stop offset="1" stop-color="#2BA1CF" stop-opacity="0"/>
</radialGradient>
<radialGradient id="paint8_radial_1_9" cx="0" cy="0" r="1" gradientUnits="userSpaceOnUse" gradientTransform="translate(116.273 2.60153) rotate(13.8711) scale(159.751 81.0248)">
<stop stop-color="#26FF26"/>
<stop offset="1" stop-color="#001A7A" stop-opacity="0"/>
</radialGradient>
<clipPath id="clip0_1_9">
<rect width="42.2821" height="42.2821" fill="white" transform="translate(0 0.299347)"/>
</clipPath>
<clipPath id="clip1_1_9">
<rect width="21.1411" height="20.2602" fill="white" transform="translate(11.4514 11.7507)"/>
</clipPath>
</defs>
</svg>
