<svg width="128" height="40" viewBox="0 0 128 40" fill="none" xmlns="http://www.w3.org/2000/svg">
<path d="M42.0658 17.3599L42.0436 12.2266H46.6032V29.9125H41.8919L38.7749 24.7793L36.9043 21.4569L36.9265 24.7793L36.947 29.9125H32.3652V12.2266H37.097L40.2157 17.3599L42.0658 20.66V17.3599Z" fill="#001153"/>
<path d="M56.9142 16.3014L58.7217 12.2249H63.8405L58.2477 23.2266V29.9125H52.9566V23.0539L47.3433 12.2266H53.2362L55.0863 16.3031L56.0327 18.5038L56.9142 16.3014Z" fill="#001153"/>
<path d="M71.8257 24.3484L71.2886 25.5778L69.181 29.9125H63.6956L69.0088 20.8533L64.4492 12.2249H70.6219L71.8905 15.5251L72.4293 16.7545L72.946 15.5251L74.2146 12.2249H79.6779L75.1831 20.2052L80.3889 29.9108H74.2368L72.344 25.5761L71.8257 24.3484Z" fill="#001153"/>
<path d="M90.3316 13.4629C90.0264 13.3535 89.7757 13.2988 89.5831 13.2988C89.3938 13.2988 89.3 13.3672 89.3 13.5022C89.3 13.6083 89.3597 13.6886 89.4808 13.7451C89.6001 13.8015 89.7928 13.8665 90.0554 13.9366C90.3845 14.0289 90.6573 14.1212 90.8739 14.2136C91.0904 14.3059 91.2797 14.4513 91.4434 14.6513C91.6054 14.8514 91.6855 15.1147 91.6855 15.4396C91.6855 15.773 91.5985 16.0535 91.4263 16.2792C91.2524 16.5049 91.0188 16.6742 90.7255 16.7836C90.4322 16.893 90.1048 16.9478 89.7468 16.9478C89.3392 16.9478 88.9283 16.8811 88.5139 16.746C88.0996 16.6126 87.7415 16.4279 87.4397 16.1954L88.0058 15.0412C88.2377 15.243 88.5293 15.4157 88.8788 15.5593C89.2301 15.7029 89.5234 15.773 89.7604 15.773C89.8746 15.773 89.9633 15.7525 90.0298 15.7098C90.0963 15.6687 90.1287 15.6038 90.1287 15.5148C90.1287 15.4088 90.0656 15.3267 89.9411 15.2669C89.8167 15.2071 89.6206 15.1455 89.3529 15.0788C89.0289 14.995 88.7578 14.9078 88.5412 14.8189C88.3247 14.7283 88.1371 14.5898 87.9785 14.4C87.8217 14.2119 87.7415 13.9588 87.7415 13.6425C87.7415 13.3347 87.8216 13.0662 87.9836 12.8354C88.1456 12.6045 88.3758 12.4284 88.6742 12.3053C88.9726 12.1822 89.3188 12.1206 89.7127 12.1206C90.0724 12.1206 90.4305 12.1719 90.7869 12.2728C91.1433 12.3737 91.4536 12.5071 91.7179 12.6746L91.1654 13.8408C90.9165 13.7006 90.6385 13.5741 90.3316 13.4629Z" fill="#001153"/>
<path d="M98.3835 12.4558C98.7688 12.6627 99.0706 12.9482 99.2872 13.3124C99.5037 13.6767 99.6129 14.0888 99.6129 14.5453C99.6129 15.007 99.5037 15.4225 99.2872 15.7918C99.0706 16.1612 98.7688 16.4502 98.3835 16.6588C97.9981 16.8674 97.565 16.9717 97.0824 16.9717C96.5999 16.9717 96.1668 16.8674 95.7797 16.6588C95.3943 16.4502 95.0925 16.1612 94.876 15.7918C94.6594 15.4225 94.5503 15.007 94.5503 14.5453C94.5503 14.0836 94.6594 13.6715 94.876 13.3056C95.0925 12.9414 95.3943 12.6558 95.7797 12.4523C96.1651 12.2489 96.5999 12.1463 97.0824 12.1463C97.5633 12.1463 97.9981 12.2489 98.3835 12.4558ZM96.6118 13.5655C96.4618 13.6647 96.3407 13.7998 96.2503 13.9708C96.1599 14.1418 96.1156 14.335 96.1156 14.5504C96.1156 14.7659 96.1599 14.9608 96.2503 15.1335C96.339 15.3079 96.4601 15.4447 96.6118 15.5456C96.7636 15.6465 96.9273 15.6978 97.1012 15.6978C97.2768 15.6978 97.4371 15.6482 97.582 15.549C97.727 15.4499 97.8395 15.3131 97.9231 15.1369C98.0066 14.9608 98.0475 14.7659 98.0475 14.5504C98.0475 14.335 98.0066 14.1401 97.9231 13.9673C97.8395 13.7929 97.7253 13.6596 97.582 13.5621C97.4371 13.4663 97.2768 13.4168 97.1012 13.4168C96.9273 13.4185 96.7636 13.4663 96.6118 13.5655Z" fill="#001153"/>
<path d="M91.2713 21.1867C91.6004 21.474 91.7641 21.8826 91.7641 22.4093C91.7641 22.9667 91.6004 23.401 91.2713 23.7105C90.9422 24.02 90.4784 24.1756 89.8782 24.1756H89.2405V25.3743H87.7161V20.7558H89.8782C90.4784 20.7558 90.9422 20.8994 91.2713 21.1867ZM90.1834 22.8693C90.2738 22.7701 90.3181 22.6333 90.3181 22.4572C90.3181 22.2862 90.2738 22.1528 90.1834 22.0588C90.0947 21.9647 89.9652 21.9168 89.7998 21.9168H89.2405V23.018H89.7998C89.9669 23.0163 90.0947 22.9667 90.1834 22.8693Z" fill="#001153"/>
<path d="M98.3835 20.9661C98.7688 21.173 99.0706 21.4586 99.2872 21.8228C99.5037 22.187 99.6129 22.5991 99.6129 23.0557C99.6129 23.5173 99.5037 23.9328 99.2872 24.3022C99.0689 24.6715 98.7688 24.9605 98.3835 25.1691C97.9981 25.3777 97.565 25.482 97.0824 25.482C96.5999 25.482 96.1668 25.3777 95.7814 25.1691C95.396 24.9605 95.0942 24.6715 94.8777 24.3022C94.6611 23.9328 94.552 23.5173 94.552 23.0557C94.552 22.594 94.6611 22.1819 94.8777 21.816C95.0942 21.4517 95.396 21.1662 95.7814 20.9627C96.1668 20.7592 96.5999 20.6566 97.0824 20.6566C97.5633 20.6566 97.9964 20.7609 98.3835 20.9661ZM96.6118 22.0776C96.4601 22.1767 96.3407 22.3118 96.2503 22.4828C96.1599 22.6538 96.1156 22.847 96.1156 23.0625C96.1156 23.2779 96.1599 23.4729 96.2503 23.6456C96.3407 23.8183 96.4601 23.9568 96.6118 24.0577C96.7636 24.1586 96.9256 24.2099 97.1012 24.2099C97.2768 24.2099 97.4371 24.1603 97.582 24.0611C97.727 23.9619 97.8395 23.8251 97.9231 23.649C98.0066 23.4729 98.0475 23.2779 98.0475 23.0625C98.0475 22.847 98.0049 22.6521 97.9231 22.4794C97.8395 22.305 97.7253 22.1716 97.582 22.0742C97.4371 21.9784 97.2768 21.9288 97.1012 21.9288C96.9256 21.9288 96.7619 21.9784 96.6118 22.0776Z" fill="#001153"/>
<path d="M102.668 12.2437H104.193V15.5918H106.113V16.864H102.668V12.2437Z" fill="#001153"/>
<path d="M112.5 16.864L112.27 16.2108H110.541L110.304 16.864H108.74L110.686 12.2437H112.25L114.124 16.864H112.5ZM110.937 15.1181H111.897L111.424 13.7673L110.937 15.1181Z" fill="#001153"/>
<path d="M119.665 16.864L119.113 15.6653H118.541V16.864H117.017V12.2437H119.246C119.873 12.2437 120.356 12.3874 120.698 12.6746C121.04 12.9619 121.212 13.3706 121.212 13.8972C121.212 14.2307 121.149 14.5231 121.024 14.771C120.9 15.019 120.719 15.2156 120.482 15.361L121.389 16.864H119.665ZM118.541 14.5043H119.244C119.411 14.5043 119.539 14.4547 119.629 14.3555C119.718 14.2563 119.764 14.1195 119.764 13.9434C119.764 13.7724 119.718 13.639 119.629 13.545C119.539 13.451 119.411 13.4031 119.244 13.4031H118.541V14.5043Z" fill="#001153"/>
<path d="M108.314 20.7558H109.873L108.314 25.376H106.751L106.06 22.6145L105.351 25.376H103.785L102.24 20.7558H103.871L104.614 23.7875L105.351 20.7558H106.836L107.584 23.7875L108.314 20.7558Z" fill="#001153"/>
<path d="M112.797 20.7558H116.695V21.9151H114.321V22.4811H116.478V23.6404H114.321V24.2133H116.753V25.3726H112.797V20.7558Z" fill="#001153"/>
<path d="M122.608 25.376L122.056 24.1774H121.485V25.376H119.96V20.7558H122.189C122.816 20.7558 123.299 20.8994 123.642 21.1867C123.983 21.474 124.155 21.8826 124.155 22.4093C124.155 22.7427 124.092 23.0351 123.967 23.2831C123.843 23.531 123.662 23.7276 123.425 23.873L124.332 25.376H122.608ZM121.485 23.0163H122.187C122.354 23.0163 122.482 22.9667 122.571 22.8676C122.661 22.7684 122.705 22.6316 122.705 22.4555C122.705 22.2845 122.659 22.1511 122.571 22.057C122.48 21.963 122.353 21.9151 122.187 21.9151H121.485V23.0163Z" fill="#001153"/>
<path d="M126.735 29.9279H87.7161V28.4436H125.956L126.735 29.9279Z" fill="#001153"/>
<path d="M23.2496 23.0745H28.2695V19.063H23.2496V16.3886H28.2695L31.3507 12.2266H17.979V29.9125H30.7983V25.706H23.2496V23.0745Z" fill="#001153"/>
<path d="M10.5668 19.4477L7.61517 23.1719V23.1736H11.1209V26.3165C10.4065 26.5456 9.73807 26.6585 9.1157 26.6585C6.928 26.6585 5.835 24.8836 5.835 21.3337C5.835 19.3998 6.19308 18.0387 6.90583 17.2556C7.62029 16.4707 8.50014 16.0791 9.5488 16.0791C10.6367 16.0791 11.7041 16.2877 12.7528 16.6947L15.6328 13.0628C13.6122 12.1035 11.5012 11.623 9.29815 11.623C8.03805 11.623 6.85638 11.818 5.75486 12.2061C4.65334 12.5943 3.66947 13.1688 2.80326 13.9314C1.93704 14.6924 1.25328 15.7064 0.753673 16.97C0.250656 18.2336 0 19.6819 0 21.3115C0 22.9411 0.23531 24.3843 0.705929 25.6411C1.17655 26.8979 1.82621 27.9119 2.65491 28.6796C3.4819 29.4491 4.43167 30.027 5.5025 30.4169C6.57333 30.8068 7.73965 31 8.99975 31C10.2905 31 11.4722 30.8512 12.543 30.5554C13.6139 30.2579 14.758 29.7825 15.9721 29.1276V19.4477H10.5668Z" fill="#001153"/>
<path d="M126.232 12.3993L125.77 11.7393C125.727 11.7427 125.681 11.7461 125.635 11.7461H125.105V12.4011H124.798V10.25H125.633C126.191 10.25 126.529 10.5321 126.529 10.9989C126.529 11.3306 126.356 11.57 126.056 11.6777L126.564 12.3993H126.232ZM126.223 10.9989C126.223 10.6911 126.019 10.5167 125.627 10.5167H125.106V11.4845H125.627C126.017 11.4845 126.223 11.3067 126.223 10.9989Z" fill="#001153"/>
<path d="M125.681 13.6493C124.402 13.6493 123.362 12.6062 123.362 11.3238C123.362 10.0413 124.404 8.99999 125.681 8.99999C126.958 8.99999 128 10.0431 128 11.3255C128 12.608 126.96 13.6493 125.681 13.6493ZM125.681 9.23425C124.532 9.23425 123.596 10.1713 123.596 11.3255C123.596 12.4797 124.53 13.4167 125.681 13.4167C126.83 13.4167 127.766 12.4797 127.766 11.3255C127.766 10.1713 126.832 9.23425 125.681 9.23425Z" fill="#001153"/>
</svg>
