<svg width="43" height="43" viewBox="0 0 43 43" fill="none" xmlns="http://www.w3.org/2000/svg">
<g clip-path="url(#clip0_3327_344336)">
<path d="M14.7812 25.5608C14.9855 28.1247 17.0119 30.1215 20.6454 30.358V32.25H22.2579V30.3446C26.0204 30.0812 28.2188 28.0709 28.2188 25.1523C28.2188 22.4998 26.5364 21.1318 23.5291 20.4223L22.2579 20.1213V14.9694C23.8704 15.1521 24.897 16.0336 25.1442 17.2538H27.9715C27.7672 14.7839 25.6495 12.8516 22.2579 12.642V10.75H20.6454V12.6823C17.4338 12.9967 15.2435 14.9291 15.2435 17.6623C15.2435 20.081 16.8721 21.6183 19.5784 22.2498L20.6454 22.5132V27.9796C18.9926 27.7296 17.8987 26.8239 17.6515 25.5608H14.7812ZM20.6319 19.7397C19.0463 19.3715 18.1863 18.6217 18.1863 17.4929C18.1863 16.2298 19.1135 15.2838 20.6454 15.007V19.737L20.6319 19.7397ZM22.4917 22.9459C24.4186 23.392 25.3082 24.1149 25.3082 25.3915C25.3082 26.8481 24.2009 27.8479 22.2579 28.0306V22.8921L22.4917 22.9459Z" fill="#CED4DA"/>
<path d="M21.5 40.3125C16.5106 40.3125 11.7256 38.3305 8.19755 34.8024C4.66953 31.2744 2.6875 26.4894 2.6875 21.5C2.6875 16.5106 4.66953 11.7256 8.19755 8.19755C11.7256 4.66953 16.5106 2.6875 21.5 2.6875C26.4894 2.6875 31.2744 4.66953 34.8024 8.19755C38.3305 11.7256 40.3125 16.5106 40.3125 21.5C40.3125 26.4894 38.3305 31.2744 34.8024 34.8024C31.2744 38.3305 26.4894 40.3125 21.5 40.3125ZM21.5 43C27.2022 43 32.6708 40.7348 36.7028 36.7028C40.7348 32.6708 43 27.2022 43 21.5C43 15.7978 40.7348 10.3292 36.7028 6.2972C32.6708 2.26517 27.2022 0 21.5 0C15.7978 0 10.3292 2.26517 6.2972 6.2972C2.26517 10.3292 0 15.7978 0 21.5C0 27.2022 2.26517 32.6708 6.2972 36.7028C10.3292 40.7348 15.7978 43 21.5 43Z" fill="#CED4DA"/>
<path d="M21.5 36.2812C17.5798 36.2812 13.8201 34.7239 11.0481 31.9519C8.27606 29.1799 6.71875 25.4202 6.71875 21.5C6.71875 17.5798 8.27606 13.8201 11.0481 11.0481C13.8201 8.27606 17.5798 6.71875 21.5 6.71875C25.4202 6.71875 29.1799 8.27606 31.9519 11.0481C34.7239 13.8201 36.2812 17.5798 36.2812 21.5C36.2812 25.4202 34.7239 29.1799 31.9519 31.9519C29.1799 34.7239 25.4202 36.2812 21.5 36.2812ZM21.5 37.625C23.6176 37.625 25.7144 37.2079 27.6708 36.3976C29.6271 35.5872 31.4048 34.3994 32.9021 32.9021C34.3994 31.4048 35.5872 29.6271 36.3976 27.6708C37.2079 25.7144 37.625 23.6176 37.625 21.5C37.625 19.3824 37.2079 17.2856 36.3976 15.3292C35.5872 13.3729 34.3994 11.5952 32.9021 10.0979C31.4048 8.60056 29.6271 7.4128 27.6708 6.60244C25.7144 5.79209 23.6176 5.375 21.5 5.375C17.2234 5.375 13.1219 7.07388 10.0979 10.0979C7.07388 13.1219 5.375 17.2234 5.375 21.5C5.375 25.7766 7.07388 29.8781 10.0979 32.9021C13.1219 35.9261 17.2234 37.625 21.5 37.625Z" fill="#CED4DA"/>
</g>
<defs>
<clipPath id="clip0_3327_344336">
<rect width="43" height="43" fill="white"/>
</clipPath>
</defs>
</svg>
