<svg width="16" height="16" viewBox="0 0 16 16" fill="none" xmlns="http://www.w3.org/2000/svg">
<g clip-path="url(#clip0_2412_537221)">
<path d="M15.2794 3.13075C7.70956 0.82689 8.2893 0.977864 8.15946 1.01712L1.21466 3.13075C1.15047 3.15014 1.09456 3.19034 1.05574 3.24501C1.01693 3.29968 0.997413 3.36571 1.00028 3.4327V6.38274C0.992356 8.39257 1.63512 10.351 2.83247 11.9652C4.02983 13.5795 5.71748 14.7629 7.64313 15.3385C8.398 15.568 8.11417 15.568 8.86904 15.3385C10.7947 14.7629 12.4823 13.5795 13.6797 11.9652C14.8771 10.351 15.5198 8.39257 15.5119 6.38274V3.4327C15.5138 3.36332 15.4916 3.29541 15.4493 3.24041C15.407 3.18542 15.347 3.14669 15.2794 3.13075ZM14.8899 6.38274C14.8978 8.26191 14.2974 10.0932 13.1785 11.6029C12.0595 13.1126 10.4821 14.2197 8.68183 14.7588C8.15946 14.9188 8.35875 14.9279 7.81222 14.7588C6.01201 14.2197 4.43455 13.1126 3.31559 11.6029C2.19663 10.0932 1.59625 8.26191 1.60417 6.38274V3.6652L8.24703 1.62101L14.8899 3.64406V6.38274Z" stroke-width="0.2"/>
<path d="M8.15645 2.23971L2.41943 4.0514C2.35833 4.07061 2.30492 4.10875 2.26693 4.16032C2.22893 4.21188 2.20832 4.2742 2.20807 4.33825V6.45188C2.20331 8.18601 2.75389 9.87611 3.77918 11.2747C4.80448 12.6733 6.25062 13.7068 7.90583 14.224C8.30138 14.3478 8.20778 14.3478 8.58823 14.224C10.2434 13.7068 11.6896 12.6733 12.7149 11.2747C13.7402 9.87611 14.2908 8.18601 14.286 6.45188V4.33825C14.2857 4.2742 14.2651 4.21188 14.2271 4.16032C14.1891 4.10875 14.1357 4.07061 14.0746 4.0514C7.80015 2.0676 8.28628 2.19743 8.15645 2.23971ZM8.40706 13.6322C8.21382 13.6926 8.2893 13.6956 8.087 13.6322C7.32265 13.3905 6.6012 13.0297 5.94921 12.5633C6.19094 12.1712 6.529 11.8475 6.93121 11.6229C7.33342 11.3984 7.78639 11.2805 8.24703 11.2805C8.70767 11.2805 9.16064 11.3984 9.56285 11.6229C9.96506 11.8475 10.3031 12.1712 10.5449 12.5633C9.89354 13.0309 9.1719 13.3917 8.40706 13.6322ZM7.34119 5.84799C7.02086 5.84799 6.71365 5.72074 6.48715 5.49423C6.26064 5.26773 6.13339 4.96052 6.13339 4.64019H6.73729C7.05762 4.64019 7.36482 4.76744 7.59133 4.99395C7.81783 5.22045 7.94508 5.52766 7.94508 5.84799H7.34119ZM9.75677 5.24409H10.3607C10.3607 5.56442 10.2334 5.87162 10.0069 6.09813C9.78041 6.32463 9.4732 6.45188 9.15287 6.45188H8.54898C8.54898 6.13156 8.67623 5.82435 8.90273 5.59784C9.12924 5.37134 9.43644 5.24409 9.75677 5.24409ZM13.6821 4.55867V6.45188C13.6825 7.54376 13.445 8.62263 12.9862 9.6134C12.5273 10.6042 11.858 11.4831 11.025 12.1889C10.7531 11.7681 10.3888 11.4149 9.95966 11.1564C9.53055 10.8979 9.04804 10.7409 8.54898 10.6973V10.0753H8.85093C8.93101 10.0753 9.00781 10.0434 9.06444 9.98682C9.12106 9.93019 9.15287 9.85339 9.15287 9.77331C9.15287 9.69323 9.12106 9.61643 9.06444 9.5598C9.00781 9.50318 8.93101 9.47136 8.85093 9.47136H8.54898V7.05578H9.15287C9.63336 7.05578 10.0942 6.86491 10.4339 6.52515C10.7737 6.18539 10.9646 5.72458 10.9646 5.24409V4.94214C10.9646 4.86206 10.9328 4.78526 10.8761 4.72863C10.8195 4.67201 10.7427 4.64019 10.6626 4.64019C9.75677 4.64019 9.07437 4.53451 8.43424 5.21692C8.30553 4.87056 8.07399 4.57184 7.77068 4.36082C7.46737 4.14979 7.10679 4.03656 6.73729 4.0363H5.83145C5.75136 4.0363 5.67456 4.06811 5.61794 4.12474C5.56131 4.18136 5.5295 4.25816 5.5295 4.33825V4.64019C5.5295 5.12068 5.72037 5.58149 6.06013 5.92125C6.39989 6.26101 6.8607 6.45188 7.34119 6.45188H7.94508V7.96162H7.64313C7.56305 7.96162 7.48625 7.99343 7.42962 8.05006C7.373 8.10669 7.34119 8.18349 7.34119 8.26357C7.34119 8.34365 7.373 8.42045 7.42962 8.47708C7.48625 8.53371 7.56305 8.56552 7.64313 8.56552H7.94508V10.7003C7.44628 10.7435 6.96395 10.9001 6.53485 11.1581C6.10576 11.4161 5.74125 11.7686 5.46911 12.1889C4.63605 11.4831 3.96679 10.6042 3.5079 9.6134C3.04902 8.62263 2.81153 7.54376 2.81197 6.45188V4.57376L8.24703 2.8587L13.6821 4.55867Z" stroke-width="0.2"/>
</g>
<defs>
<clipPath id="clip0_2412_537221">
<rect width="16" height="16" fill="white"/>
</clipPath>
</defs>
</svg>
