<svg width="32" height="31" viewBox="0 0 32 31" fill="none" xmlns="http://www.w3.org/2000/svg">
<g clip-path="url(#clip0_3072_345049)">
<rect width="32" height="30.0235" transform="translate(0 0.0471191)" fill="white" fill-opacity="0.01"/>
<path d="M21.3098 3.92236C21.3098 3.40857 21.5139 2.91582 21.8772 2.55252C22.2405 2.18921 22.7332 1.98511 23.247 1.98511H27.1215C27.6353 1.98511 28.1281 2.18921 28.4914 2.55252C28.8547 2.91582 29.0588 3.40857 29.0588 3.92236V27.1694H30.0274C30.2843 27.1694 30.5307 27.2714 30.7123 27.4531C30.894 27.6347 30.996 27.8811 30.996 28.138C30.996 28.3949 30.894 28.6413 30.7123 28.8229C30.5307 29.0046 30.2843 29.1066 30.0274 29.1066H0.968626C0.71173 29.1066 0.465356 29.0046 0.283704 28.8229C0.102051 28.6413 0 28.3949 0 28.138C0 27.8811 0.102051 27.6347 0.283704 27.4531C0.465356 27.2714 0.71173 27.1694 0.968626 27.1694H1.93725V21.3576C1.93725 20.8438 2.14135 20.3511 2.50466 19.9878C2.86796 19.6245 3.36071 19.4204 3.8745 19.4204H7.749C8.2628 19.4204 8.75554 19.6245 9.11885 19.9878C9.48215 20.3511 9.68626 20.8438 9.68626 21.3576V27.1694H11.6235V13.6086C11.6235 13.0948 11.8276 12.6021 12.1909 12.2388C12.5542 11.8755 13.047 11.6714 13.5608 11.6714H17.4353C17.9491 11.6714 18.4418 11.8755 18.8051 12.2388C19.1684 12.6021 19.3725 13.0948 19.3725 13.6086V27.1694H21.3098V3.92236Z" fill="#CED4DA"/>
<path d="M3.1078 2.54639C3.6518 2.54639 4.1518 2.6327 4.6078 2.80534C5.0638 2.97797 5.4238 3.21441 5.6878 3.51465C5.9518 3.81488 6.0838 4.14139 6.0838 4.49416V8.32216C6.0838 8.3747 6.0678 8.41599 6.0358 8.44601C6.0038 8.47603 5.9598 8.49105 5.9038 8.49105H4.0078C3.9518 8.49105 3.9078 8.47603 3.8758 8.44601C3.8438 8.41599 3.8278 8.3747 3.8278 8.32216V7.9281C3.8278 7.89808 3.8198 7.88307 3.8038 7.88307C3.7958 7.87556 3.7838 7.88307 3.7678 7.90559C3.6318 8.13827 3.4438 8.3109 3.2038 8.42349C2.9638 8.52858 2.6478 8.58112 2.2558 8.58112C1.5998 8.58112 1.0838 8.44226 0.707799 8.16454C0.331799 7.87932 0.143799 7.46649 0.143799 6.92607C0.143799 6.35562 0.355799 5.91653 0.779799 5.60879C1.2118 5.30105 1.8358 5.14717 2.6518 5.14717H3.7678C3.8078 5.14717 3.8278 5.12841 3.8278 5.09088V4.88822C3.8278 4.7306 3.7638 4.603 3.6358 4.50542C3.5158 4.40785 3.3518 4.35906 3.1438 4.35906C2.9998 4.35906 2.8718 4.38157 2.7598 4.42661C2.6478 4.47165 2.5678 4.53169 2.5198 4.60675C2.4878 4.65929 2.4558 4.69682 2.4238 4.71934C2.3998 4.73435 2.3638 4.7381 2.3158 4.7306L0.383799 4.50542C0.271799 4.49041 0.215799 4.44537 0.215799 4.37032C0.247799 4.03255 0.391799 3.72481 0.647799 3.44709C0.903799 3.16937 1.2438 2.9517 1.6678 2.79408C2.0998 2.62895 2.5798 2.54639 3.1078 2.54639ZM2.9518 7.11747C3.2078 7.11747 3.4158 7.05367 3.5758 6.92607C3.7438 6.79847 3.8278 6.62583 3.8278 6.40816V6.2618C3.8278 6.22427 3.8078 6.2055 3.7678 6.2055H3.1678C2.6638 6.2055 2.4118 6.35938 2.4118 6.66712C2.4118 6.80222 2.4558 6.91106 2.5438 6.99362C2.6398 7.07619 2.7758 7.11747 2.9518 7.11747Z" fill="#1ECC1E"/>
<path d="M10.6203 2.54639C11.0203 2.54639 11.3803 2.62895 11.7003 2.79408C12.0203 2.95921 12.2723 3.20315 12.4563 3.5259C12.6483 3.84115 12.7443 4.21645 12.7443 4.65179V8.32216C12.7443 8.3747 12.7283 8.41599 12.6963 8.44601C12.6643 8.47603 12.6203 8.49105 12.5643 8.49105H10.6683C10.6123 8.49105 10.5683 8.47603 10.5363 8.44601C10.5043 8.41599 10.4883 8.3747 10.4883 8.32216V5.1134C10.4883 4.88822 10.4243 4.70808 10.2963 4.57297C10.1763 4.43036 10.0163 4.35906 9.81627 4.35906C9.60827 4.35906 9.44027 4.43036 9.31227 4.57297C9.19227 4.70808 9.13227 4.88822 9.13227 5.1134V8.32216C9.13227 8.3747 9.11627 8.41599 9.08427 8.44601C9.05227 8.47603 9.00827 8.49105 8.95227 8.49105H7.05627C7.00027 8.49105 6.95627 8.47603 6.92427 8.44601C6.89227 8.41599 6.87627 8.3747 6.87627 8.32216V2.80534C6.87627 2.7528 6.89227 2.71152 6.92427 2.68149C6.95627 2.65147 7.00027 2.63646 7.05627 2.63646H8.95227C9.00827 2.63646 9.05227 2.65147 9.08427 2.68149C9.11627 2.71152 9.13227 2.7528 9.13227 2.80534V3.21066C9.13227 3.24068 9.14027 3.25945 9.15627 3.26695C9.17227 3.27446 9.18427 3.26695 9.19227 3.24443C9.49627 2.77907 9.97227 2.54639 10.6203 2.54639Z" fill="#1ECC1E"/>
<path d="M16.4494 8.58112C15.6894 8.58112 15.0454 8.38972 14.5174 8.00692C13.9974 7.62412 13.6534 7.10621 13.4854 6.4532C13.4054 6.18299 13.3654 5.88275 13.3654 5.55249C13.3654 5.1847 13.4134 4.85069 13.5094 4.55046C13.7014 3.92747 14.0534 3.43959 14.5654 3.08681C15.0854 2.72653 15.7174 2.54639 16.4614 2.54639C17.2054 2.54639 17.8294 2.72653 18.3334 3.08681C18.8454 3.43959 19.1974 3.91996 19.3894 4.52794C19.4854 4.84319 19.5334 5.1772 19.5334 5.52997C19.5334 5.8152 19.5014 6.10042 19.4374 6.38565C19.2694 7.06118 18.9214 7.59785 18.3934 7.99566C17.8734 8.38596 17.2254 8.58112 16.4494 8.58112ZM16.4494 6.76845C16.6574 6.76845 16.8254 6.70465 16.9534 6.57705C17.0814 6.44194 17.1694 6.26555 17.2174 6.04788C17.2494 5.90527 17.2654 5.73639 17.2654 5.54123C17.2654 5.3686 17.2454 5.19596 17.2054 5.02333C17.0854 4.58048 16.8334 4.35906 16.4494 4.35906C16.0494 4.35906 15.7974 4.58048 15.6934 5.02333C15.6534 5.15093 15.6334 5.32356 15.6334 5.54123C15.6334 5.73639 15.6494 5.90527 15.6814 6.04788C15.8014 6.52826 16.0574 6.76845 16.4494 6.76845Z" fill="#1ECC1E"/>
</g>
<defs>
<clipPath id="clip0_3072_345049">
<rect width="32" height="30.0235" fill="white" transform="translate(0 0.0471191)"/>
</clipPath>
</defs>
</svg>
