<svg width="32" height="31" viewBox="0 0 32 31" fill="none" xmlns="http://www.w3.org/2000/svg">
<path fill-rule="evenodd" clip-rule="evenodd" d="M19.9318 0.59818C19.8494 0.400498 19.6979 0.234897 19.5022 0.128429V0.126552C19.3069 0.020344 19.0791 -0.0207721 18.8558 0.00988954C18.6325 0.0405512 18.4268 0.141187 18.2722 0.295435L2.27215 16.2454C2.13817 16.3788 2.04874 16.546 2.01489 16.7265C1.98104 16.9069 2.00426 17.0928 2.08168 17.261C2.15911 17.4292 2.28735 17.5725 2.45057 17.6731C2.61379 17.7738 2.80484 17.8274 3.00015 17.8273H9.64615L6.04415 28.8103C5.9775 29.0129 5.98596 29.2307 6.06814 29.4282C6.15032 29.6257 6.30138 29.7913 6.4967 29.8979C6.69201 30.0046 6.92007 30.046 7.1437 30.0155C7.36733 29.9849 7.57334 29.8842 7.72815 29.7298L13.0163 24.4581C12.8665 23.4672 12.9272 22.4534 13.2005 21.4762C13.2227 21.3969 13.2462 21.3181 13.271 21.2397C12.896 20.9229 12.591 20.5397 12.3736 20.1119C12.1467 19.6653 12.0202 19.1797 12.0018 18.6853C11.9835 18.1909 12.0738 17.6983 12.2671 17.238C12.4604 16.7777 12.7526 16.3597 13.1254 16.0099C13.4983 15.6601 13.9439 15.3861 14.4344 15.2047C14.925 15.0234 15.4501 14.9387 15.977 14.9559C16.504 14.9731 17.0215 15.0918 17.4975 15.3046C17.5671 15.3358 17.6356 15.3688 17.703 15.4038C17.7948 15.1082 17.9648 14.836 18.201 14.6144C18.5703 14.2681 19.071 14.0735 19.5931 14.0735H22.4059C22.7019 14.0735 22.991 14.136 23.2531 14.2533L23.7282 13.7798C23.8621 13.6464 23.9516 13.4792 23.9854 13.2987C24.0193 13.1182 23.996 12.9324 23.9186 12.7642C23.8412 12.596 23.713 12.4527 23.5497 12.352C23.3865 12.2514 23.1955 12.1978 23.0002 12.1979H16.3542L19.9562 1.21678C20.0229 1.01394 20.0143 0.795862 19.9318 0.59818ZM22.0217 15.4808H19.5931C19.4688 15.4808 19.3496 15.5272 19.2616 15.6097C19.1737 15.6921 19.1243 15.804 19.1243 15.9206C19.1243 15.9596 19.1298 15.998 19.1404 16.0349C19.1616 16.1087 19.2031 16.1767 19.2616 16.2316C19.3496 16.3141 19.4688 16.3604 19.5931 16.3604H20.0617L20.0619 17.3016C19.9768 17.3131 19.8921 17.3262 19.8078 17.3408C19.7359 17.3533 19.6644 17.3668 19.5931 17.3815C19.3159 17.4386 19.0437 17.5123 18.778 17.602C18.5245 17.6876 18.2769 17.7877 18.0367 17.9018C17.5303 18.1421 17.0567 18.4444 16.6288 18.8027C16.0137 19.3179 15.5108 19.9345 15.1425 20.618C14.9345 21.0039 14.7695 21.411 14.6514 21.8334C14.61 21.9814 14.5746 22.1304 14.5452 22.2802C14.4963 22.5289 14.4639 22.7796 14.448 23.0309L22.0217 15.4808ZM14.3051 20.2191C14.5402 19.7847 14.8212 19.3768 15.1423 19.0006C15.4042 18.6939 15.6927 18.4084 16.0048 18.1469C16.1052 18.0628 16.208 17.9813 16.3131 17.9023C16.714 17.601 17.1489 17.3374 17.612 17.1169C17.4797 16.9742 17.3287 16.8485 17.1629 16.7425C17.0642 16.6795 16.9604 16.6235 16.8521 16.5751C16.5882 16.457 16.3033 16.3865 16.0122 16.3668C15.9831 16.3648 15.954 16.3634 15.9249 16.3624C15.6036 16.3519 15.2834 16.4036 14.9842 16.5142C14.6851 16.6247 14.4134 16.7918 14.186 17.0051C13.9587 17.2184 13.7805 17.4733 13.6627 17.7539C13.5448 18.0346 13.4898 18.335 13.5009 18.6364C13.5019 18.6638 13.5035 18.6911 13.5056 18.7184C13.5266 18.9914 13.6018 19.2587 13.7276 19.5062C13.7794 19.6081 13.8393 19.7058 13.9067 19.7985C14.0195 19.9538 14.1533 20.0952 14.3051 20.2191Z" fill="#CED4DA"/>
<path fill-rule="evenodd" clip-rule="evenodd" d="M19.1246 15.9207C19.1246 15.8041 19.174 15.6922 19.2619 15.6098C19.3498 15.5273 19.469 15.481 19.5934 15.481H22.4061C22.5305 15.481 22.6497 15.5273 22.7376 15.6098C22.8255 15.6922 22.8749 15.8041 22.8749 15.9207C22.8749 16.0374 22.8255 16.1492 22.7376 16.2317C22.6497 16.3142 22.5305 16.3605 22.4061 16.3605H21.9373V17.3017C23.2142 17.4746 24.4084 17.9966 25.3707 18.8025C26.3331 19.6085 27.0211 20.6626 27.3486 21.8332C27.6761 23.0037 27.6286 24.2389 27.2122 25.3843C26.7957 26.5298 26.0287 27.5347 25.007 28.2736L25.5705 28.8031C25.6585 28.8855 25.708 28.9974 25.7081 29.1141C25.7082 29.2308 25.6589 29.3428 25.571 29.4254C25.4831 29.508 25.3638 29.5544 25.2394 29.5545C25.115 29.5546 24.9956 29.5083 24.9076 29.4258L24.2082 28.7697C23.2284 29.2856 22.1233 29.5558 20.9998 29.5542C19.8762 29.5558 18.7711 29.2856 17.7913 28.7697L17.0919 29.4258C17.0483 29.4667 16.9966 29.499 16.9396 29.5211C16.8827 29.5432 16.8217 29.5545 16.7601 29.5545C16.6985 29.5544 16.6375 29.543 16.5806 29.5209C16.5238 29.4987 16.4721 29.4663 16.4285 29.4254C16.385 29.3845 16.3505 29.336 16.327 29.2826C16.3034 29.2292 16.2914 29.1719 16.2914 29.1141C16.2915 28.9974 16.341 28.8855 16.429 28.8031L16.9934 28.2736C15.9717 27.5348 15.2047 26.5299 14.7882 25.3845C14.3717 24.2392 14.3242 23.0041 14.6516 21.8335C14.979 20.6629 15.6668 19.6088 16.6291 18.8028C17.5913 17.9969 18.7854 17.4747 20.0622 17.3017V16.3605H19.5934C19.469 16.3605 19.3498 16.3142 19.2619 16.2317C19.174 16.1492 19.1246 16.0374 19.1246 15.9207ZM21.4685 20.3186C21.4685 20.202 21.4192 20.0901 21.3312 20.0077C21.2433 19.9252 21.1241 19.8789 20.9998 19.8789C20.8754 19.8789 20.7562 19.9252 20.6683 20.0077C20.5804 20.0901 20.531 20.202 20.531 20.3186V23.2758L19.1911 25.3692C19.1271 25.4693 19.1081 25.5891 19.1382 25.7024C19.1684 25.8156 19.2453 25.913 19.3519 25.973C19.4586 26.0331 19.5864 26.051 19.7071 26.0227C19.8278 25.9944 19.9316 25.9223 19.9956 25.8222L21.402 23.6232C21.4456 23.5549 21.4686 23.4768 21.4685 23.3972V20.3186Z" fill="#1ECC1E"/>
<path d="M14.3054 20.2193C14.0628 20.0213 13.8662 19.7786 13.7279 19.5063C13.5895 19.2341 13.5123 18.938 13.5012 18.6365C13.49 18.3351 13.5451 18.0347 13.6629 17.7541C13.7808 17.4734 13.9589 17.2185 14.1863 17.0053C14.4136 16.792 14.6853 16.6248 14.9845 16.5143C15.2836 16.4037 15.6038 16.352 15.9252 16.3625C16.2465 16.373 16.5621 16.4454 16.8523 16.5752C17.1426 16.705 17.4012 16.8894 17.6123 17.117C16.1871 17.7958 15.029 18.8822 14.3054 20.2193Z" fill="#1ECC1E"/>
<path d="M24.3873 17.117C24.5983 16.8894 24.8569 16.705 25.1472 16.5752C25.4374 16.4454 25.753 16.373 26.0744 16.3625C26.3957 16.352 26.7159 16.4037 27.015 16.5143C27.3142 16.6248 27.5859 16.792 27.8132 17.0053C28.0406 17.2185 28.2187 17.4734 28.3366 17.7541C28.4545 18.0347 28.5095 18.3351 28.4983 18.6365C28.4872 18.938 28.41 19.2341 28.2717 19.5063C28.1333 19.7786 27.9367 20.0213 27.6941 20.2193C26.9706 18.8822 25.8124 17.7958 24.3873 17.117Z" fill="#1ECC1E"/>
</svg>
