<svg width="32" height="31" viewBox="0 0 32 31" fill="none" xmlns="http://www.w3.org/2000/svg">
<g clip-path="url(#clip0_3072_344996)">
<path d="M10.2861 17.6969C10.5865 17.3547 10.9214 17.0405 11.2861 16.7587C12.4733 15.8332 13.9727 15.3343 15.5161 15.3513C15.8083 15.3477 16.1005 15.3602 16.3911 15.3888C17.5273 15.5207 18.6103 15.9174 19.5411 16.5429L22.1361 13.958C22.2653 13.8271 22.352 13.6644 22.3861 13.4889C22.4101 13.3577 22.4033 13.2231 22.3661 13.0946C22.329 12.9661 22.2624 12.8467 22.1709 12.7449C22.0795 12.643 21.9655 12.5611 21.8369 12.5049C21.7082 12.4486 21.568 12.4195 21.4261 12.4193H14.9661L18.4661 1.73282C18.5316 1.53597 18.5242 1.32414 18.4453 1.13169C18.3663 0.93924 18.2204 0.777468 18.0311 0.672618C17.8417 0.566342 17.6202 0.521809 17.4011 0.545956C17.1829 0.574129 16.9816 0.671853 16.8311 0.822736L1.2661 16.3505C1.13693 16.4814 1.0502 16.6442 1.0161 16.8196C0.989164 16.9539 0.994614 17.0921 1.03204 17.2241C1.06948 17.3561 1.13794 17.4785 1.23241 17.5825C1.32688 17.6864 1.44495 17.7692 1.57797 17.8247C1.71099 17.8802 1.85557 17.9071 2.0011 17.9033H8.4411L4.9411 28.5898C4.86869 28.7842 4.86869 28.9959 4.9411 29.1903C5.02199 29.3838 5.17173 29.5451 5.36493 29.6469C5.55813 29.7486 5.78289 29.7845 6.0011 29.7485C6.21907 29.7196 6.42008 29.622 6.5711 29.4717L10.2961 25.7563C9.29918 24.6222 8.75313 23.1984 8.7513 21.7283C8.74948 20.2582 9.292 18.8332 10.2861 17.6969Z" fill="#CED4DA"/>
<path fill-rule="evenodd" clip-rule="evenodd" d="M15.001 16.7728C13.9914 16.8826 13.035 17.2564 12.241 17.8518C11.9611 18.0714 11.7033 18.3148 11.471 18.5789C10.7581 19.3919 10.3383 20.396 10.272 21.447C10.2056 22.4979 10.4962 23.5416 11.1018 24.4278C11.7075 25.3141 12.5971 25.9973 13.6427 26.3793C14.6883 26.7614 15.8361 26.8225 16.921 26.5539C17.5762 26.392 18.1935 26.1167 18.741 25.7423C19.1724 25.4357 19.5561 25.0741 19.881 24.6681L20.461 24.0019C20.6698 24.1946 20.8668 24.3982 21.051 24.6118C21.3776 25.0192 21.7611 25.3837 22.191 25.6954C22.8262 26.1427 23.5602 26.4507 24.3389 26.5968C25.1176 26.7429 25.9214 26.7235 26.691 26.5398C27.0378 26.455 27.3732 26.3338 27.691 26.1786C28.4502 25.8296 29.1089 25.3147 29.6118 24.6771C30.1147 24.0395 30.4471 23.298 30.581 22.5148C30.6415 22.0857 30.6566 21.652 30.626 21.22C30.4984 20.0795 29.9569 19.0147 29.0921 18.2042C28.2273 17.3937 27.0918 16.8866 25.876 16.7681C25.4142 16.7382 24.9503 16.7508 24.491 16.8056C23.4719 16.9616 22.5223 17.39 21.756 18.0394C21.681 18.1051 21.356 18.4476 21.036 18.7994C20.716 19.1512 20.501 19.4468 20.501 19.4468C20.501 19.4468 20.241 19.1794 19.941 18.851C19.6096 18.4462 19.2287 18.0793 18.806 17.758C18.0524 17.2248 17.1627 16.8867 16.226 16.7775C15.8186 16.7431 15.4088 16.7416 15.001 16.7728ZM16.126 19.7329C16.4483 19.8091 16.7476 19.9535 17.001 20.1551C17.056 20.1974 17.391 20.5539 17.746 20.948L18.416 21.6892C18.446 21.7173 18.376 21.8017 17.791 22.4491C17.431 22.8479 17.096 23.2091 17.046 23.2513C16.7805 23.4701 16.4662 23.6304 16.126 23.7204C15.8151 23.772 15.497 23.772 15.186 23.7204C14.6476 23.6235 14.1666 23.3427 13.836 22.9323C13.6743 22.7157 13.5494 22.4767 13.466 22.224C13.3905 21.9483 13.3764 21.661 13.4249 21.38C13.4733 21.0991 13.5832 20.8306 13.7475 20.5914C13.9118 20.3521 14.1271 20.1474 14.3799 19.99C14.6326 19.8326 14.9173 19.7259 15.216 19.6766C15.5156 19.6457 15.8186 19.6648 16.111 19.7329H16.126ZM25.756 19.6954C26.2162 19.7675 26.64 19.9749 26.9662 20.2878C27.2924 20.6006 27.5043 21.0027 27.571 21.4358C27.5932 21.6942 27.5695 21.9541 27.501 22.2052C27.399 22.59 27.1812 22.9392 26.8736 23.2112C26.566 23.4831 26.1815 23.6664 25.766 23.7392C25.6014 23.7694 25.4331 23.7773 25.266 23.7627C24.9587 23.7657 24.6557 23.6946 24.386 23.5562C24.026 23.3874 23.956 23.3264 23.196 22.496C22.816 22.0785 22.511 21.7267 22.516 21.7126C22.521 21.6985 22.836 21.3467 23.211 20.9339C23.941 20.127 24.021 20.0566 24.356 19.8924C24.5682 19.7992 24.7915 19.7299 25.021 19.686C25.2604 19.6584 25.5026 19.6616 25.741 19.6954H25.756Z" fill="#1ECC1E"/>
</g>
<defs>
<clipPath id="clip0_3072_344996">
<rect width="29.685" height="29.212" fill="white" transform="translate(0.999756 0.540039)"/>
</clipPath>
</defs>
</svg>
