<svg width="32" height="31" viewBox="0 0 32 31" fill="none" xmlns="http://www.w3.org/2000/svg">
<g clip-path="url(#clip0_3072_345044)">
<rect width="32" height="30.0235" transform="translate(0 0.0234375)" fill="white" fill-opacity="0.01"/>
<path fill-rule="evenodd" clip-rule="evenodd" d="M7.46626 0.274587C7.64794 0.450403 7.75 0.68886 7.75 0.9375V1.875H23.25V0.9375C23.25 0.68886 23.3521 0.450403 23.5337 0.274587C23.7154 0.0987721 23.9618 0 24.2188 0C24.4757 0 24.7221 0.0987721 24.9038 0.274587C25.0854 0.450403 25.1875 0.68886 25.1875 0.9375V1.875H27.125C28.1527 1.875 29.1383 2.27009 29.865 2.97335C30.5917 3.67661 31 4.63044 31 5.625V7.5H0V5.625C0 4.63044 0.408258 3.67661 1.13496 2.97335C1.86166 2.27009 2.84729 1.875 3.875 1.875H5.8125V0.9375C5.8125 0.68886 5.91456 0.450403 6.09624 0.274587C6.27792 0.0987721 6.52432 0 6.78125 0C7.03818 0 7.28458 0.0987721 7.46626 0.274587ZM31 9.375V26.25C31 27.2446 30.5917 28.1984 29.865 28.9017C29.1383 29.6049 28.1527 30 27.125 30H3.875C2.84729 30 1.86166 29.6049 1.13496 28.9017C0.408258 28.1984 0 27.2446 0 26.25V9.375H31ZM16.096 18.2128C16.096 17.8075 16.016 17.4322 15.856 17.087C15.592 16.509 15.164 16.1337 14.572 15.9611C14.516 15.9386 14.508 15.9123 14.548 15.8823L15.844 15.0378C15.916 14.9928 15.952 14.9215 15.952 14.8239V13.1689C15.952 13.1163 15.936 13.0751 15.904 13.045C15.872 13.015 15.828 13 15.772 13H10.42C10.364 13 10.32 13.015 10.288 13.045C10.256 13.0751 10.24 13.1163 10.24 13.1689V14.6438C10.24 14.6963 10.256 14.7376 10.288 14.7676C10.32 14.7977 10.364 14.8127 10.42 14.8127H12.844C12.868 14.8127 12.884 14.8239 12.892 14.8464C12.9 14.8615 12.892 14.8727 12.868 14.8802L11.116 15.9498C11.06 15.9798 11.032 16.0211 11.032 16.0737C11.032 16.1112 11.044 16.1487 11.068 16.1862L12.016 17.4472C12.048 17.4998 12.092 17.526 12.148 17.526C12.196 17.526 12.236 17.511 12.268 17.481C12.46 17.3459 12.608 17.2483 12.712 17.1883C12.824 17.1282 12.928 17.0982 13.024 17.0982C13.296 17.0982 13.504 17.2108 13.648 17.436C13.76 17.6311 13.816 17.8676 13.816 18.1453C13.816 18.4155 13.756 18.6482 13.636 18.8433C13.5 19.0535 13.3 19.1586 13.036 19.1586C12.772 19.1586 12.576 19.0535 12.448 18.8433C12.376 18.7232 12.324 18.5544 12.292 18.3367C12.276 18.2316 12.212 18.1791 12.1 18.1791H10.18C10.06 18.1791 10 18.2354 10 18.3479C10.024 18.7307 10.104 19.061 10.24 19.3387C10.472 19.8416 10.836 20.2394 11.332 20.5322C11.836 20.8249 12.408 20.9712 13.048 20.9712C13.704 20.9712 14.28 20.8286 14.776 20.5434C15.272 20.2507 15.628 19.8566 15.844 19.3612C16.012 18.9784 16.096 18.5956 16.096 18.2128ZM18.192 13C18.104 13 18.028 13.015 17.964 13.045L16.824 13.4841C16.728 13.5142 16.68 13.5817 16.68 13.6868V14.9816C16.68 15.0866 16.728 15.1392 16.824 15.1392H16.872L18.012 14.9253C18.028 14.9178 18.04 14.9215 18.048 14.9365C18.064 14.9515 18.072 14.9665 18.072 14.9816V20.7123C18.072 20.7648 18.088 20.8061 18.12 20.8361C18.152 20.8662 18.196 20.8812 18.252 20.8812H20.148C20.204 20.8812 20.248 20.8662 20.28 20.8361C20.312 20.8061 20.328 20.7648 20.328 20.7123V13.1689C20.328 13.1163 20.312 13.0751 20.28 13.045C20.248 13.015 20.204 13 20.148 13H18.192Z" fill="#CED4DA"/>
</g>
<defs>
<clipPath id="clip0_3072_345044">
<rect width="32" height="30.0235" fill="white" transform="translate(0 0.0234375)"/>
</clipPath>
</defs>
</svg>
