<svg width="16" height="16" viewBox="0 0 16 16" fill="none" xmlns="http://www.w3.org/2000/svg">
<path d="M7.6291 14.1365L7.73 14.7665C7.73939 14.8237 7.76586 14.8765 7.80576 14.9176C7.84565 14.9587 7.897 14.9861 7.9527 14.9959C8.0084 15.0058 8.0657 14.9976 8.11668 14.9726C8.16766 14.9475 8.20979 14.9068 8.23727 14.8561L8.63817 14.1169C10.1066 13.9494 11.4639 13.234 12.4524 12.1066C13.4409 10.9792 13.9916 9.5183 13.9999 8.0014C14.0078 6.43219 13.4279 4.9199 12.3802 3.77742C11.3324 2.63495 9.89699 1.94972 8.3709 1.86352L8.27 1.23349C8.26061 1.17627 8.23414 1.12347 8.19424 1.08236C8.15435 1.04126 8.103 1.01389 8.0473 1.00405C7.9916 0.994215 7.9343 1.00239 7.88332 1.02744C7.83234 1.05249 7.79021 1.09319 7.76273 1.1439L7.36183 1.88593C5.89319 2.0528 4.5355 2.768 3.54692 3.89555C2.55835 5.02309 2.00784 6.48433 2.00008 8.0014C1.99221 9.57033 2.57222 11.0823 3.62004 12.2243C4.66786 13.3663 6.10325 14.051 7.6291 14.1365ZM13.4545 8.0014C13.4478 9.31171 12.996 10.5786 12.177 11.5835C11.358 12.5885 10.2232 13.2685 8.96817 13.5064L11.9845 7.9342C12.045 7.82152 12.0796 7.69606 12.0854 7.56751C12.0913 7.43896 12.0683 7.31075 12.0182 7.19278C11.9681 7.0748 11.8923 6.97021 11.7966 6.88708C11.7009 6.80396 11.5879 6.74451 11.4663 6.71334L9.05817 6.09452L8.46363 2.43195C9.82679 2.54155 11.0991 3.17672 12.0249 4.20985C12.9507 5.24298 13.4614 6.59754 13.4545 8.0014ZM7.86364 2.12114L8.55363 6.36893C8.56228 6.42318 8.58629 6.4736 8.62266 6.51394C8.65903 6.55427 8.70616 6.58272 8.75817 6.59574L11.3409 7.25937C11.3812 7.26991 11.4186 7.28979 11.4503 7.31749C11.482 7.34518 11.5071 7.37995 11.5237 7.41914C11.5403 7.45833 11.5479 7.50089 11.546 7.54358C11.5441 7.58626 11.5327 7.62792 11.5127 7.66538L8.13636 13.8817L7.44637 9.63107C7.43723 9.57734 7.41301 9.52752 7.37667 9.48772C7.34033 9.44792 7.29347 9.41989 7.24183 9.40706L4.65913 8.74343C4.61842 8.73301 4.58059 8.71309 4.5486 8.6852C4.51661 8.65732 4.49133 8.62224 4.4747 8.58268C4.45807 8.54312 4.45056 8.50016 4.45275 8.45713C4.45494 8.41411 4.46677 8.37218 4.48732 8.33462L7.86364 2.12114ZM7.04547 2.49635L4.02914 8.0686C3.96805 8.18138 3.93309 8.30709 3.92697 8.43599C3.92085 8.56488 3.94374 8.6935 3.99385 8.81185C4.04397 8.93019 4.11997 9.03508 4.21595 9.1184C4.31193 9.20171 4.42532 9.26121 4.54732 9.29225L6.95547 9.91109L7.55001 13.5709C6.18393 13.4659 4.90755 12.8326 3.97865 11.7988C3.04976 10.7651 2.53756 9.40788 2.54553 8.0014C2.55326 6.6889 3.00708 5.42036 3.82865 4.41477C4.65022 3.40919 5.78796 2.72968 7.04547 2.49355V2.49635Z" stroke-width="0.2"/>
</svg>
