<svg width="20" height="20" viewBox="0 0 20 20" fill="none" xmlns="http://www.w3.org/2000/svg">
<g clip-path="url(#clip0_2876_325341)">
<path fill-rule="evenodd" clip-rule="evenodd" d="M0.00244141 0.00109863H1.25244V18.7511H20.0024V20.0011H0.00244141V0.00109863ZM12.5024 4.3761C12.5024 4.21034 12.5683 4.05137 12.6855 3.93416C12.8027 3.81695 12.9617 3.7511 13.1274 3.7511H18.1274C18.2932 3.7511 18.4522 3.81695 18.5694 3.93416C18.6866 4.05137 18.7524 4.21034 18.7524 4.3761V9.3761C18.7524 9.54186 18.6866 9.70083 18.5694 9.81804C18.4522 9.93525 18.2932 10.0011 18.1274 10.0011C17.9617 10.0011 17.8027 9.93525 17.6855 9.81804C17.5683 9.70083 17.5024 9.54186 17.5024 9.3761V6.1261L12.9862 11.6473C12.9309 11.7148 12.8621 11.77 12.7842 11.8093C12.7063 11.8486 12.6211 11.8711 12.5339 11.8755C12.4468 11.8798 12.3597 11.8659 12.2783 11.8346C12.1969 11.8033 12.1229 11.7552 12.0612 11.6936L8.82744 8.45985L4.25744 14.7436C4.15747 14.8707 4.01211 14.9541 3.85192 14.9763C3.69173 14.9985 3.52917 14.9578 3.39841 14.8626C3.26764 14.7674 3.17886 14.6253 3.1507 14.466C3.12255 14.3068 3.15723 14.1428 3.24744 14.0086L8.24744 7.1336C8.30051 7.06049 8.3688 6.99976 8.4476 6.95558C8.52641 6.91141 8.61385 6.88484 8.7039 6.87771C8.79396 6.87058 8.8845 6.88306 8.96927 6.91429C9.05404 6.94552 9.13103 6.99475 9.19494 7.0586L12.4562 10.3211L16.8087 5.0011H13.1274C12.9617 5.0011 12.8027 4.93525 12.6855 4.81804C12.5683 4.70083 12.5024 4.54186 12.5024 4.3761Z" fill="#E9ECEF"/>
</g>
<defs>
<clipPath id="clip0_2876_325341">
<rect width="20" height="20" fill="white"/>
</clipPath>
</defs>
</svg>
