<svg width="16" height="16" viewBox="0 0 16 16" fill="none" xmlns="http://www.w3.org/2000/svg">
<g clip-path="url(#clip0_2382_540293)">
<path d="M15.6958 16.0357H15.056V10.2774C15.056 10.2082 15.0335 10.1409 14.992 10.0855L12.1129 6.24661C12.0821 6.20792 12.0433 6.17642 11.999 6.15432C11.9548 6.13222 11.9063 6.12004 11.8569 6.11865H4.17918C4.12951 6.11865 4.08053 6.13022 4.03611 6.15243C3.99169 6.17464 3.95305 6.20688 3.92325 6.24661L1.04409 10.0855C1.00653 10.1429 0.98449 10.209 0.980112 10.2774V16.0357H0.3403C0.255455 16.0357 0.174086 16.0695 0.114092 16.1294C0.0540977 16.1894 0.0203934 16.2708 0.0203934 16.3557C0.0203934 16.4405 0.0540977 16.5219 0.114092 16.5819C0.174086 16.6419 0.255455 16.6756 0.3403 16.6756H15.6958C15.7806 16.6756 15.862 16.6419 15.922 16.5819C15.982 16.5219 16.0157 16.4405 16.0157 16.3557C16.0157 16.2708 15.982 16.1894 15.922 16.1294C15.862 16.0695 15.7806 16.0357 15.6958 16.0357ZM14.4162 13.7964H13.1366V12.8367H14.4162V13.7964ZM14.4162 12.1969H12.8166C12.7318 12.1969 12.6504 12.2306 12.5904 12.2906C12.5304 12.3506 12.4967 12.4319 12.4967 12.5168V14.1163C12.4967 14.2012 12.5304 14.2825 12.5904 14.3425C12.6504 14.4025 12.7318 14.4362 12.8166 14.4362H14.4162V16.0357H11.2171V12.5168C11.2171 12.4319 11.1834 12.3506 11.1234 12.2906C11.0634 12.2306 10.9821 12.1969 10.8972 12.1969H9.29768V10.383L11.8569 6.9728L14.4162 10.383V12.1969ZM5.77871 9.95753L6.73843 8.6779H7.8581L6.89838 9.95753H5.77871ZM3.85927 9.95753L4.81899 8.6779H5.93866L4.97894 9.95753H3.85927ZM1.93983 9.95753L2.89955 8.6779H4.01922L3.0595 9.95753H1.93983ZM7.37824 6.75846L6.41852 8.03809H5.29885L6.25857 6.75846H7.37824ZM9.29768 6.75846L8.33796 8.03809H7.21829L8.178 6.75846H9.29768ZM11.2171 6.75846L10.2574 8.03809H9.13772L10.0974 6.75846H11.2171ZM8.65786 8.6779H9.77754L8.81782 9.95753H7.69815L8.65786 8.6779ZM9.29768 12.8367H10.5773V16.0357H9.29768V12.8367ZM4.33913 6.75846H5.4588L4.49908 8.03809H3.37941L4.33913 6.75846ZM1.61992 10.5973H8.65786V16.0357H1.61992V10.5973Z" stroke-width="0.1"/>
<path d="M2.30003 3.55941C2.30003 3.89879 2.43484 4.22427 2.67482 4.46424C2.9148 4.70422 3.24027 4.83904 3.57965 4.83904C3.91903 4.83904 4.24451 4.70422 4.48448 4.46424C4.72446 4.22427 4.85928 3.89879 4.85928 3.55941C4.85928 3.22003 4.72446 2.89455 4.48448 2.65458C4.24451 2.4146 3.91903 2.27979 3.57965 2.27979C3.24027 2.27979 2.9148 2.4146 2.67482 2.65458C2.43484 2.89455 2.30003 3.22003 2.30003 3.55941V3.55941ZM3.57965 2.9196C3.74934 2.9196 3.91208 2.98701 4.03207 3.10699C4.15205 3.22698 4.21946 3.38972 4.21946 3.55941C4.21946 3.7291 4.15205 3.89184 4.03207 4.01183C3.91208 4.13181 3.74934 4.19922 3.57965 4.19922C3.40996 4.19922 3.24722 4.13181 3.12724 4.01183C3.00725 3.89184 2.93984 3.7291 2.93984 3.55941C2.93984 3.38972 3.00725 3.22698 3.12724 3.10699C3.24722 2.98701 3.40996 2.9196 3.57965 2.9196Z" stroke-width="0.1"/>
<path d="M3.89958 1.63981V1.31991C3.89958 1.23506 3.86587 1.15369 3.80588 1.0937C3.74589 1.0337 3.66452 1 3.57967 1C3.49483 1 3.41346 1.0337 3.35346 1.0937C3.29347 1.15369 3.25977 1.23506 3.25977 1.31991V1.63981C3.25977 1.72466 3.29347 1.80603 3.35346 1.86602C3.41346 1.92601 3.49483 1.95972 3.57967 1.95972C3.66452 1.95972 3.74589 1.92601 3.80588 1.86602C3.86587 1.80603 3.89958 1.72466 3.89958 1.63981Z" stroke-width="0.1"/>
<path d="M3.25977 5.47909V5.79899C3.25977 5.88384 3.29347 5.96521 3.35346 6.0252C3.41346 6.08519 3.49483 6.1189 3.57967 6.1189C3.66452 6.1189 3.74589 6.08519 3.80588 6.0252C3.86587 5.96521 3.89958 5.88384 3.89958 5.79899V5.47909C3.89958 5.39424 3.86587 5.31287 3.80588 5.25288C3.74589 5.19288 3.66452 5.15918 3.57967 5.15918C3.49483 5.15918 3.41346 5.19288 3.35346 5.25288C3.29347 5.31287 3.25977 5.39424 3.25977 5.47909Z" stroke-width="0.1"/>
<path d="M5.819 3.87907C5.90385 3.87907 5.98522 3.84537 6.04521 3.78537C6.10521 3.72538 6.13891 3.64401 6.13891 3.55916C6.13891 3.47432 6.10521 3.39295 6.04521 3.33296C5.98522 3.27296 5.90385 3.23926 5.819 3.23926H5.4991C5.41425 3.23926 5.33288 3.27296 5.27289 3.33296C5.2129 3.39295 5.17919 3.47432 5.17919 3.55916C5.17919 3.64401 5.2129 3.72538 5.27289 3.78537C5.33288 3.84537 5.41425 3.87907 5.4991 3.87907H5.819Z" stroke-width="0.1"/>
<path d="M1.3403 3.23926C1.25546 3.23926 1.17409 3.27296 1.11409 3.33296C1.0541 3.39295 1.02039 3.47432 1.02039 3.55916C1.02039 3.64401 1.0541 3.72538 1.11409 3.78537C1.17409 3.84537 1.25546 3.87907 1.3403 3.87907H1.66021C1.74505 3.87907 1.82642 3.84537 1.88641 3.78537C1.94641 3.72538 1.98011 3.64401 1.98011 3.55916C1.98011 3.47432 1.94641 3.39295 1.88641 3.33296C1.82642 3.27296 1.74505 3.23926 1.66021 3.23926H1.3403Z" stroke-width="0.1"/>
<path d="M2.22325 1.74892C2.19351 1.71894 2.15813 1.69514 2.11914 1.6789C2.08016 1.66266 2.03835 1.6543 1.99612 1.6543C1.95388 1.6543 1.91207 1.66266 1.87309 1.6789C1.8341 1.69514 1.79872 1.71894 1.76898 1.74892C1.739 1.77866 1.7152 1.81404 1.69896 1.85303C1.68272 1.89201 1.67435 1.93383 1.67435 1.97606C1.67435 2.01829 1.68272 2.0601 1.69896 2.09908C1.7152 2.13807 1.739 2.17345 1.76898 2.20319L1.99612 2.42713C2.02586 2.45711 2.06124 2.48091 2.10022 2.49715C2.1392 2.51339 2.18102 2.52175 2.22325 2.52175C2.26548 2.52175 2.30729 2.51339 2.34628 2.49715C2.38526 2.48091 2.42064 2.45711 2.45038 2.42713C2.50997 2.36719 2.54341 2.28611 2.54341 2.20159C2.54341 2.11708 2.50997 2.036 2.45038 1.97606L2.22325 1.74892Z" stroke-width="0.1"/>
<path d="M4.70891 4.69166C4.64933 4.7516 4.61588 4.83268 4.61588 4.91719C4.61588 5.00171 4.64933 5.08279 4.70891 5.14273L4.93284 5.36986C4.96258 5.39985 4.99797 5.42364 5.03695 5.43989C5.07593 5.45613 5.11775 5.46449 5.15998 5.46449C5.20221 5.46449 5.24402 5.45613 5.28301 5.43989C5.32199 5.42364 5.35737 5.39985 5.38711 5.36986C5.41709 5.34012 5.44089 5.30474 5.45714 5.26576C5.47338 5.22677 5.48174 5.18496 5.48174 5.14273C5.48174 5.10049 5.47338 5.05868 5.45714 5.0197C5.44089 4.98072 5.41709 4.94534 5.38711 4.9156L5.15998 4.69166C5.10004 4.63207 5.01896 4.59863 4.93444 4.59863C4.84993 4.59863 4.76885 4.63207 4.70891 4.69166V4.69166Z" stroke-width="0.1"/>
<path d="M4.93606 1.74859L4.71212 1.97573C4.65254 2.03567 4.61909 2.11675 4.61909 2.20127C4.61909 2.28578 4.65254 2.36686 4.71212 2.4268C4.74186 2.45678 4.77724 2.48058 4.81623 2.49682C4.85521 2.51306 4.89702 2.52143 4.93925 2.52143C4.98149 2.52143 5.0233 2.51306 5.06228 2.49682C5.10127 2.48058 5.13665 2.45678 5.16639 2.4268L5.39352 2.20286C5.42351 2.17312 5.44731 2.13774 5.46355 2.09876C5.47979 2.05977 5.48815 2.01796 5.48815 1.97573C5.48815 1.9335 5.47979 1.89168 5.46355 1.8527C5.44731 1.81372 5.42351 1.77833 5.39352 1.74859C5.36373 1.71813 5.32815 1.69391 5.28887 1.67739C5.24959 1.66086 5.2074 1.65234 5.16479 1.65234C5.12217 1.65234 5.07999 1.66086 5.04071 1.67739C5.00143 1.69391 4.96585 1.71813 4.93606 1.74859V1.74859Z" stroke-width="0.1"/>
<path d="M1.99612 4.69166L1.76898 4.9156C1.739 4.94534 1.7152 4.98072 1.69896 5.0197C1.68272 5.05868 1.67435 5.10049 1.67435 5.14273C1.67435 5.18496 1.68272 5.22677 1.69896 5.26576C1.7152 5.30474 1.739 5.34012 1.76898 5.36986C1.79872 5.39985 1.8341 5.42364 1.87309 5.43989C1.91207 5.45613 1.95388 5.46449 1.99612 5.46449C2.03835 5.46449 2.08016 5.45613 2.11914 5.43989C2.15813 5.42364 2.19351 5.39985 2.22325 5.36986L2.44718 5.14273C2.50677 5.08279 2.54021 5.00171 2.54021 4.91719C2.54021 4.83268 2.50677 4.7516 2.44718 4.69166C2.38725 4.63207 2.30616 4.59863 2.22165 4.59863C2.13714 4.59863 2.05605 4.63207 1.99612 4.69166V4.69166Z" stroke-width="0.1"/>
<path d="M5.92267 13.1913L4.92776 12.6922L5.42362 11.7005C5.46156 11.6249 5.46806 11.5374 5.44168 11.4571C5.41531 11.3768 5.35821 11.3102 5.28286 11.2718C5.20731 11.2339 5.11981 11.2274 5.03948 11.2538C4.95916 11.2801 4.89254 11.3372 4.85419 11.4126L4.21437 12.6922C4.17643 12.7678 4.16993 12.8553 4.19631 12.9356C4.22269 13.0159 4.27979 13.0825 4.35513 13.1209L5.35004 13.6199L4.85419 14.6116C4.81624 14.6872 4.80975 14.7747 4.83612 14.855C4.8625 14.9353 4.9196 15.002 4.99494 15.0403C5.0705 15.0783 5.158 15.0848 5.23832 15.0584C5.31865 15.032 5.38527 14.9749 5.42362 14.8996L6.06343 13.6199C6.10138 13.5444 6.10787 13.4569 6.0815 13.3766C6.05512 13.2962 5.99802 13.2296 5.92267 13.1913Z" stroke-width="0.1"/>
</g>
<defs>
<clipPath id="clip0_2382_540293">
<rect width="16" height="16" fill="white"/>
</clipPath>
</defs>
</svg>
