<svg width="18" height="18" viewBox="0 0 18 18" fill="none" xmlns="http://www.w3.org/2000/svg">
<path d="M9.31975 1.96003V1.32001C9.31975 1.23514 9.28603 1.15374 9.22602 1.09373C9.16601 1.03372 9.08462 1 8.99974 1C8.91487 1 8.83348 1.03372 8.77347 1.09373C8.71345 1.15374 8.67973 1.23514 8.67973 1.32001V1.96003C8.67973 2.0449 8.71345 2.1263 8.77347 2.18631C8.83348 2.24633 8.91487 2.28004 8.99974 2.28004C9.08462 2.28004 9.16601 2.24633 9.22602 2.18631C9.28603 2.1263 9.31975 2.0449 9.31975 1.96003Z" stroke-width="0.2"/>
<path d="M8.99974 15.7197C8.91487 15.7197 8.83348 15.7534 8.77347 15.8135C8.71345 15.8735 8.67973 15.9549 8.67973 16.0397V16.6798C8.67973 16.7646 8.71345 16.846 8.77347 16.906C8.83348 16.9661 8.91487 16.9998 8.99974 16.9998C9.08462 16.9998 9.16601 16.9661 9.22602 16.906C9.28603 16.846 9.31975 16.7646 9.31975 16.6798V16.0397C9.31975 15.9549 9.28603 15.8735 9.22602 15.8135C9.16601 15.7534 9.08462 15.7197 8.99974 15.7197Z" stroke-width="0.2"/>
<path d="M16.68 8.68018H16.04C15.9551 8.68018 15.8737 8.71389 15.8137 8.7739C15.7537 8.83392 15.72 8.91531 15.72 9.00019C15.72 9.08506 15.7537 9.16645 15.8137 9.22647C15.8737 9.28648 15.9551 9.3202 16.04 9.3202H16.68C16.7649 9.3202 16.8463 9.28648 16.9063 9.22647C16.9663 9.16645 17 9.08506 17 9.00019C17 8.91531 16.9663 8.83392 16.9063 8.7739C16.8463 8.71389 16.7649 8.68018 16.68 8.68018Z" stroke-width="0.2"/>
<path d="M1.95949 8.68018H1.31947C1.2346 8.68018 1.15321 8.71389 1.09319 8.7739C1.03318 8.83392 0.999458 8.91531 0.999458 9.00019C0.999458 9.08506 1.03318 9.16645 1.09319 9.22647C1.15321 9.28648 1.2346 9.3202 1.31947 9.3202H1.95949C2.04436 9.3202 2.12575 9.28648 2.18577 9.22647C2.24578 9.16645 2.2795 9.08506 2.2795 9.00019C2.2795 8.91531 2.24578 8.83392 2.18577 8.7739C2.12575 8.71389 2.04436 8.68018 1.95949 8.68018Z" stroke-width="0.2"/>
<path d="M4.24758 4.24736C4.30718 4.1874 4.34064 4.10629 4.34064 4.02175C4.34064 3.93721 4.30718 3.8561 4.24758 3.79614L3.79636 3.34173C3.76661 3.31173 3.73122 3.28793 3.69223 3.27168C3.65323 3.25543 3.6114 3.24707 3.56916 3.24707C3.52691 3.24707 3.48508 3.25543 3.44609 3.27168C3.40709 3.28793 3.3717 3.31173 3.34195 3.34173C3.31196 3.37148 3.28815 3.40687 3.2719 3.44587C3.25566 3.48486 3.24729 3.52669 3.24729 3.56894C3.24729 3.61118 3.25566 3.65301 3.2719 3.69201C3.28815 3.731 3.31196 3.76639 3.34195 3.79614L3.79636 4.24736C3.85632 4.30696 3.93743 4.34042 4.02198 4.34042C4.10652 4.34042 4.18762 4.30696 4.24758 4.24736V4.24736Z" stroke-width="0.2"/>
<path d="M14.2031 13.7522C14.1431 13.6926 14.062 13.6592 13.9775 13.6592C13.8929 13.6592 13.8118 13.6926 13.7519 13.7522C13.6923 13.8122 13.6588 13.8933 13.6588 13.9778C13.6588 14.0624 13.6923 14.1435 13.7519 14.2035L14.2031 14.6579C14.2328 14.6879 14.2682 14.7117 14.3072 14.7279C14.3462 14.7442 14.3881 14.7525 14.4303 14.7525C14.4725 14.7525 14.5144 14.7442 14.5534 14.7279C14.5924 14.7117 14.6278 14.6879 14.6575 14.6579C14.6875 14.6281 14.7113 14.5927 14.7276 14.5537C14.7438 14.5147 14.7522 14.4729 14.7522 14.4307C14.7522 14.3884 14.7438 14.3466 14.7276 14.3076C14.7113 14.2686 14.6875 14.2332 14.6575 14.2035L14.2031 13.7522Z" stroke-width="0.2"/>
<path d="M14.2031 4.24736L14.6575 3.79614C14.6875 3.76639 14.7113 3.731 14.7276 3.69201C14.7438 3.65301 14.7522 3.61118 14.7522 3.56894C14.7522 3.52669 14.7438 3.48486 14.7276 3.44587C14.7113 3.40687 14.6875 3.37148 14.6575 3.34173C14.6278 3.31173 14.5924 3.28793 14.5534 3.27168C14.5144 3.25543 14.4725 3.24707 14.4303 3.24707C14.3881 3.24707 14.3462 3.25543 14.3072 3.27168C14.2682 3.28793 14.2328 3.31173 14.2031 3.34173L13.7519 3.79614C13.6923 3.8561 13.6588 3.93721 13.6588 4.02175C13.6588 4.10629 13.6923 4.1874 13.7519 4.24736C13.8118 4.30696 13.8929 4.34042 13.9775 4.34042C14.062 4.34042 14.1431 4.30696 14.2031 4.24736V4.24736Z" stroke-width="0.2"/>
<path d="M3.79636 13.7522L3.34195 14.2035C3.31196 14.2332 3.28815 14.2686 3.2719 14.3076C3.25566 14.3466 3.24729 14.3884 3.24729 14.4307C3.24729 14.4729 3.25566 14.5147 3.2719 14.5537C3.28815 14.5927 3.31196 14.6281 3.34195 14.6579C3.3717 14.6879 3.40709 14.7117 3.44609 14.7279C3.48508 14.7442 3.52691 14.7525 3.56916 14.7525C3.6114 14.7525 3.65323 14.7442 3.69223 14.7279C3.73122 14.7117 3.76661 14.6879 3.79636 14.6579L4.24758 14.2035C4.30718 14.1435 4.34064 14.0624 4.34064 13.9778C4.34064 13.8933 4.30718 13.8122 4.24758 13.7522C4.18762 13.6926 4.10652 13.6592 4.02198 13.6592C3.93743 13.6592 3.85632 13.6926 3.79636 13.7522V13.7522Z" stroke-width="0.2"/>
<path d="M9.69097 2.95836C8.83964 2.86095 7.97735 2.94458 7.16061 3.20377C6.34387 3.46296 5.59114 3.89185 4.95177 4.46233C4.3124 5.0328 3.80083 5.73198 3.4506 6.51402C3.10038 7.29606 2.9194 8.14329 2.91954 9.00016C2.91954 9.79863 3.07681 10.5893 3.38237 11.327C3.68793 12.0646 4.13579 12.7349 4.70039 13.2995C5.26499 13.8641 5.93526 14.312 6.67295 14.6175C7.41063 14.9231 8.20128 15.0804 8.99974 15.0804C9.08461 15.0804 9.16601 15.0467 9.22602 14.9866C9.28603 14.9266 9.31975 14.8452 9.31975 14.7604C9.31975 14.6755 9.28603 14.5941 9.22602 14.5341C9.16601 14.4741 9.08461 14.4403 8.99974 14.4403C7.55692 14.4403 6.17319 13.8672 5.15295 12.847C4.13272 11.8267 3.55956 10.443 3.55956 9.00016C3.55951 8.23333 3.72158 7.47515 4.03513 6.77536C4.34869 6.07556 4.80665 5.44996 5.37897 4.93959C5.95129 4.42921 6.62504 4.0456 7.35604 3.81391C8.08703 3.58221 8.85874 3.50768 9.62056 3.59519C10.8435 3.73601 11.9824 4.28741 12.8514 5.15929C13.7204 6.03117 14.268 7.17199 14.4047 8.39534C14.5155 9.33811 14.3766 10.2934 14.002 11.1656C13.6274 12.0379 13.0302 12.7963 12.2703 13.3651C11.9993 13.5723 11.6753 13.6987 11.3356 13.7298C10.9959 13.761 10.6543 13.6956 10.3502 13.5411C10.0868 13.4133 9.85853 13.2233 9.68512 12.9874C9.51171 12.7515 9.39838 12.477 9.35495 12.1875C9.8834 12.1026 10.364 11.8314 10.7097 11.4228C11.0555 11.0142 11.2435 10.4954 11.2398 9.9602V8.36014C11.3247 8.36014 11.4061 8.32643 11.4661 8.26641C11.5261 8.2064 11.5598 8.12501 11.5598 8.04013C11.5598 7.95526 11.5261 7.87387 11.4661 7.81385C11.4061 7.75384 11.3247 7.72012 11.2398 7.72012H10.5998V5.80006C10.5998 5.71519 10.5661 5.63379 10.5061 5.57378C10.446 5.51376 10.3647 5.48005 10.2798 5.48005C10.1949 5.48005 10.1135 5.51376 10.0535 5.57378C9.99349 5.63379 9.95977 5.71519 9.95977 5.80006V7.72012H8.03971V5.80006C8.03971 5.71519 8.00599 5.63379 7.94598 5.57378C7.88596 5.51376 7.80457 5.48005 7.7197 5.48005C7.63483 5.48005 7.55344 5.51376 7.49342 5.57378C7.43341 5.63379 7.39969 5.71519 7.39969 5.80006V7.72012H6.75967C6.6748 7.72012 6.5934 7.75384 6.53339 7.81385C6.47338 7.87387 6.43966 7.95526 6.43966 8.04013C6.43966 8.12501 6.47338 8.2064 6.53339 8.26641C6.5934 8.32643 6.6748 8.36014 6.75967 8.36014V9.9602C6.76018 10.5018 6.95692 11.0249 7.31347 11.4327C7.67001 11.8404 8.1622 12.1051 8.69893 12.1779C8.74745 12.5851 8.8966 12.9739 9.13292 13.3091C9.36924 13.6443 9.6853 13.9154 10.0526 14.0979C10.465 14.3055 10.9274 14.3934 11.3873 14.3516C11.8471 14.3097 12.2861 14.1398 12.6543 13.8611C13.5036 13.2259 14.1712 12.3786 14.5902 11.4042C15.0092 10.4298 15.1648 9.36242 15.0415 8.30894C14.8855 6.9437 14.2717 5.67156 13.3 4.6999C12.3283 3.72824 11.0562 3.11437 9.69097 2.95836ZM7.39969 9.9602V8.36014H10.5998V9.9602C10.5998 10.3846 10.4312 10.7915 10.1311 11.0916C9.83108 11.3917 9.4241 11.5603 8.99974 11.5603C8.57538 11.5603 8.16841 11.3917 7.86834 11.0916C7.56827 10.7915 7.39969 10.3846 7.39969 9.9602Z" stroke-width="0.2"/>
</svg>
