<svg width="16" height="16" viewBox="0 0 16 16" fill="none" xmlns="http://www.w3.org/2000/svg">
<g clip-path="url(#clip0_2382_540274)">
<path fill-rule="evenodd" clip-rule="evenodd" d="M12.032 0.850098H3.968C3.7432 0.850753 3.52488 0.927892 3.34975 1.06884C3.17463 1.20977 3.05268 1.40617 3.00396 1.6256L1.01036 10.5856C0.978237 10.7303 0.979036 10.8804 1.01269 11.0248C1.04635 11.1692 1.11201 11.3042 1.20482 11.4198C1.29763 11.5355 1.41523 11.6287 1.54892 11.6928C1.6826 11.7569 1.82902 11.7902 1.97726 11.7901H6.73V14.2901H1.28C1.16595 14.2901 1.05658 14.3354 0.975942 14.416C0.895303 14.4967 0.849998 14.6061 0.849998 14.7201C0.849998 14.8341 0.895303 14.9435 0.975942 15.0241C1.05658 15.1048 1.16595 15.1501 1.28 15.1501H14.72C14.834 15.1501 14.9434 15.1048 15.0241 15.0241C15.1047 14.9435 15.15 14.8341 15.15 14.7201C15.15 14.6061 15.1047 14.4967 15.0241 14.416C14.9434 14.3354 14.834 14.2901 14.72 14.2901H9.27V11.7901H14.0228C14.171 11.7902 14.3174 11.7569 14.4511 11.6928C14.5848 11.6287 14.7024 11.5355 14.7952 11.4198C14.888 11.3042 14.9536 11.1692 14.9873 11.0248C15.021 10.8804 15.0217 10.7303 14.9896 10.5855L12.996 1.62552C12.9473 1.40609 12.8254 1.20977 12.6503 1.06884C12.4751 0.927892 12.2568 0.850754 12.032 0.850098ZM12.022 1.70979C12.0529 1.70781 12.0835 1.71693 12.1083 1.73552C12.1255 1.74842 12.1391 1.76529 12.1481 1.78452C12.1485 1.79312 12.1496 1.80175 12.1514 1.8103L12.672 4.2101H10.1391L9.86157 1.7101L12.0124 1.71041L12.022 1.70979ZM3.884 1.73751C3.90771 1.71902 3.93709 1.70932 3.96713 1.71005L6.12163 1.7101L5.84413 4.2101H3.31162L3.83721 1.81111C3.84387 1.78193 3.86039 1.75593 3.884 1.73751ZM6.70037 4.2101L6.97787 1.7101H9.01093L9.28843 4.2101H6.70037ZM2.55633 7.5701L3.11383 5.0701H5.74083L5.46333 7.5701H2.55633ZM6.32797 7.5701L6.60547 5.0701H9.38333L9.66083 7.5701H6.32797ZM10.5255 7.5701L10.248 5.0701H12.875L13.4325 7.5701H10.5255ZM1.85191 10.7715C1.85498 10.758 1.85611 10.7442 1.8554 10.7307L2.36634 8.4301H5.36843L5.09093 10.9301H1.97389C1.9552 10.9294 1.93687 10.9247 1.92015 10.9162C1.90298 10.9076 1.88796 10.8952 1.87615 10.8801C1.86434 10.8649 1.85603 10.8473 1.85184 10.8285C1.84765 10.8098 1.84768 10.7903 1.85191 10.7715ZM5.96117 10.9301L6.23867 8.4301H9.76133L10.0388 10.9301H5.96117ZM10.8979 10.9301L10.6204 8.4301H13.6225L14.1425 10.7715C14.1467 10.7903 14.1467 10.8098 14.1426 10.8285C14.1384 10.8473 14.1301 10.8649 14.1182 10.8801C14.1064 10.8952 14.0914 10.9076 14.0742 10.9162C14.0575 10.9247 14.0392 10.9294 14.0205 10.9301H10.8979ZM7.59 14.2901V11.7901H8.41V14.2901H7.59Z"/>
</g>
<defs>
<clipPath id="clip0_2382_540274">
<rect width="16" height="16" fill="white"/>
</clipPath>
</defs>
</svg>
