<svg width="16" height="16" viewBox="0 0 16 16" fill="none" xmlns="http://www.w3.org/2000/svg">
<g clip-path="url(#clip0_2412_537222)">
<path d="M13.9817 -0.0991211H3.09162C2.82085 -0.0991211 2.56117 0.00844216 2.36971 0.199906C2.17824 0.39137 2.07068 0.651051 2.07068 0.921821V13.8538C2.07068 14.1245 2.17824 14.3842 2.36971 14.5757C2.56117 14.7671 2.82085 14.8747 3.09162 14.8747H4.45288V15.8956C4.45288 16.0762 4.52459 16.2493 4.65223 16.3769C4.77987 16.5046 4.95299 16.5763 5.13351 16.5763H6.49476C6.61461 16.575 6.73201 16.5422 6.83508 16.481C6.93815 16.5422 7.05554 16.575 7.17539 16.5763H8.53665C8.71716 16.5763 8.89028 16.5046 9.01792 16.3769C9.14557 16.2493 9.21728 16.0762 9.21728 15.8956V14.8747H9.8979V15.8956C9.8979 16.0762 9.96961 16.2493 10.0973 16.3769C10.2249 16.5046 10.398 16.5763 10.5785 16.5763H11.9398C12.1203 16.5763 12.2934 16.5046 12.4211 16.3769C12.5487 16.2493 12.6204 16.0762 12.6204 15.8956V14.8747H13.9817C14.2524 14.8747 14.5121 14.7671 14.7036 14.5757C14.8951 14.3842 15.0026 14.1245 15.0026 13.8538V0.921821C15.0026 0.651051 14.8951 0.39137 14.7036 0.199906C14.5121 0.00844216 14.2524 -0.0991211 13.9817 -0.0991211ZM5.13351 15.8956V14.8747H6.49476V15.8956H5.13351ZM8.53665 15.8956H7.17539V14.8747H8.53665V15.8956ZM11.9398 15.8956H10.5785V14.8747H11.9398V15.8956ZM14.322 13.8538C14.322 13.944 14.2861 14.0306 14.2223 14.0944C14.1585 14.1582 14.0719 14.1941 13.9817 14.1941H3.09162C3.00136 14.1941 2.9148 14.1582 2.85098 14.0944C2.78716 14.0306 2.75131 13.944 2.75131 13.8538V0.921821C2.75131 0.831564 2.78716 0.745004 2.85098 0.681183C2.9148 0.617362 3.00136 0.581507 3.09162 0.581507H13.9817C14.0719 0.581507 14.1585 0.617362 14.2223 0.681183C14.2861 0.745004 14.322 0.831564 14.322 0.921821V13.8538Z"  stroke-width="0.2"/>
<path d="M10.9188 8.06836H6.15443C5.88366 8.06836 5.62397 8.17592 5.43251 8.36739C5.24105 8.55885 5.13348 8.81853 5.13348 9.0893V11.8118C5.13348 12.0826 5.24105 12.3423 5.43251 12.5337C5.62397 12.7252 5.88366 12.8328 6.15443 12.8328H10.9188C11.1896 12.8328 11.4493 12.7252 11.6407 12.5337C11.8322 12.3423 11.9398 12.0826 11.9398 11.8118V9.0893C11.9398 8.81853 11.8322 8.55885 11.6407 8.36739C11.4493 8.17592 11.1896 8.06836 10.9188 8.06836ZM6.15443 8.74899H10.9188C11.0091 8.74899 11.0956 8.78484 11.1595 8.84866C11.2233 8.91248 11.2591 8.99904 11.2591 9.0893V10.1102H5.81411V9.0893C5.81411 8.99904 5.84997 8.91248 5.91379 8.84866C5.97761 8.78484 6.06417 8.74899 6.15443 8.74899ZM10.9188 12.1521H6.15443C6.06417 12.1521 5.97761 12.1163 5.91379 12.0525C5.84997 11.9886 5.81411 11.9021 5.81411 11.8118V10.7909H11.2591V11.8118C11.2591 11.9021 11.2233 11.9886 11.1595 12.0525C11.0956 12.1163 11.0091 12.1521 10.9188 12.1521Z"  stroke-width="0.2"/>
<path d="M8.53664 5.68589C8.80587 5.68589 9.06906 5.60606 9.29291 5.45648C9.51677 5.3069 9.69125 5.0943 9.79428 4.84557C9.89731 4.59683 9.92427 4.32313 9.87174 4.05907C9.81922 3.79501 9.68957 3.55246 9.49919 3.36208C9.30882 3.17171 9.06627 3.04206 8.80221 2.98954C8.53815 2.93701 8.26445 2.96397 8.01571 3.067C7.76697 3.17003 7.55437 3.34451 7.4048 3.56836C7.25522 3.79222 7.17538 4.05541 7.17538 4.32464C7.17538 4.68566 7.3188 5.0319 7.57409 5.28719C7.82937 5.54247 8.17561 5.68589 8.53664 5.68589ZM8.53664 3.64401C8.67126 3.64401 8.80285 3.68393 8.91478 3.75871C9.02671 3.8335 9.11394 3.9398 9.16546 4.06417C9.21697 4.18854 9.23045 4.32539 9.20419 4.45742C9.17793 4.58945 9.11311 4.71073 9.01792 4.80591C8.92273 4.9011 8.80145 4.96592 8.66943 4.99219C8.5374 5.01845 8.40054 5.00497 8.27618 4.95345C8.15181 4.90194 8.04551 4.8147 7.97072 4.70277C7.89593 4.59084 7.85601 4.45925 7.85601 4.32464C7.85601 4.14412 7.92772 3.971 8.05536 3.84336C8.18301 3.71572 8.35613 3.64401 8.53664 3.64401Z"  stroke-width="0.2"/>
<path d="M8.53663 2.62298C8.62689 2.62298 8.71345 2.58712 8.77727 2.5233C8.84109 2.45948 8.87695 2.37292 8.87695 2.28266V1.60203C8.87695 1.51178 8.84109 1.42522 8.77727 1.36139C8.71345 1.29757 8.62689 1.26172 8.53663 1.26172C8.44638 1.26172 8.35982 1.29757 8.296 1.36139C8.23217 1.42522 8.19632 1.51178 8.19632 1.60203V2.28266C8.19632 2.37292 8.23217 2.45948 8.296 2.5233C8.35982 2.58712 8.44638 2.62298 8.53663 2.62298Z"  stroke-width="0.2"/>
<path d="M8.19632 6.36668V7.04731C8.19632 7.13757 8.23217 7.22413 8.296 7.28795C8.35982 7.35177 8.44638 7.38762 8.53663 7.38762C8.62689 7.38762 8.71345 7.35177 8.77727 7.28795C8.84109 7.22413 8.87695 7.13757 8.87695 7.04731V6.36668C8.87695 6.27642 8.84109 6.18986 8.77727 6.12604C8.71345 6.06222 8.62689 6.02637 8.53663 6.02637C8.44638 6.02637 8.35982 6.06222 8.296 6.12604C8.23217 6.18986 8.19632 6.27642 8.19632 6.36668Z"  stroke-width="0.2"/>
<path d="M10.2382 4.32469C10.2382 4.41495 10.2741 4.50151 10.3379 4.56533C10.4017 4.62915 10.4883 4.665 10.5785 4.665H11.2592C11.3494 4.665 11.436 4.62915 11.4998 4.56533C11.5636 4.50151 11.5995 4.41495 11.5995 4.32469C11.5995 4.23443 11.5636 4.14787 11.4998 4.08405C11.436 4.02023 11.3494 3.98438 11.2592 3.98438H10.5785C10.4883 3.98438 10.4017 4.02023 10.3379 4.08405C10.2741 4.14787 10.2382 4.23443 10.2382 4.32469Z"  stroke-width="0.2"/>
<path d="M5.81413 4.665H6.49476C6.58502 4.665 6.67158 4.62915 6.7354 4.56533C6.79922 4.50151 6.83507 4.41495 6.83507 4.32469C6.83507 4.23443 6.79922 4.14787 6.7354 4.08405C6.67158 4.02023 6.58502 3.98438 6.49476 3.98438H5.81413C5.72387 3.98438 5.63731 4.02023 5.57349 4.08405C5.50967 4.14787 5.47382 4.23443 5.47382 4.32469C5.47382 4.41495 5.50967 4.50151 5.57349 4.56533C5.63731 4.62915 5.72387 4.665 5.81413 4.665Z"  stroke-width="0.2"/>
<path d="M10.2212 3.11966L10.701 2.63981C10.7367 2.60931 10.7656 2.57176 10.786 2.52954C10.8065 2.48732 10.8179 2.44133 10.8197 2.39446C10.8216 2.3476 10.8137 2.30086 10.7966 2.25719C10.7794 2.21352 10.7535 2.17386 10.7203 2.14069C10.6872 2.10753 10.6475 2.08157 10.6038 2.06447C10.5602 2.04736 10.5134 2.03946 10.4666 2.04127C10.4197 2.04308 10.3737 2.05456 10.3315 2.07499C10.2893 2.09541 10.2517 2.12435 10.2212 2.15997L9.72775 2.63981C9.69213 2.67032 9.66319 2.70786 9.64276 2.75009C9.62234 2.79231 9.61086 2.83829 9.60905 2.88516C9.60724 2.93203 9.61514 2.97877 9.63224 3.02244C9.64935 3.06611 9.67531 3.10577 9.70847 3.13894C9.74164 3.1721 9.7813 3.19805 9.82497 3.21516C9.86864 3.23227 9.91538 3.24017 9.96224 3.23836C10.0091 3.23655 10.0551 3.22507 10.0973 3.20464C10.1395 3.18421 10.1771 3.15528 10.2076 3.11966H10.2212Z"  stroke-width="0.2"/>
<path d="M6.85209 5.52919L6.37225 6.02604C6.33663 6.05655 6.30769 6.09409 6.28727 6.13632C6.26684 6.17854 6.25536 6.22452 6.25355 6.27139C6.25174 6.31826 6.25964 6.365 6.27675 6.40867C6.29385 6.45234 6.31981 6.492 6.35297 6.52517C6.38614 6.55833 6.4258 6.58428 6.46947 6.60139C6.51314 6.6185 6.55988 6.6264 6.60674 6.62459C6.65361 6.62278 6.6996 6.6113 6.74182 6.59087C6.78404 6.57044 6.82159 6.54151 6.85209 6.50589L7.34555 6.02604C7.38117 5.99554 7.41011 5.95799 7.43053 5.91577C7.45096 5.87355 7.46244 5.82756 7.46425 5.7807C7.46606 5.73383 7.45816 5.68709 7.44105 5.64342C7.42394 5.59975 7.39799 5.56009 7.36483 5.52692C7.33166 5.49376 7.292 5.4678 7.24833 5.4507C7.20466 5.43359 7.15792 5.42569 7.11105 5.4275C7.06419 5.42931 7.0182 5.44079 6.97598 5.46122C6.93376 5.48164 6.89621 5.51058 6.86571 5.5462L6.85209 5.52919Z"  stroke-width="0.2"/>
<path d="M9.72775 5.52935C9.69375 5.56118 9.66665 5.59966 9.64812 5.64239C9.62959 5.68512 9.62003 5.7312 9.62003 5.77778C9.62003 5.82436 9.62959 5.87044 9.64812 5.91317C9.66665 5.9559 9.69375 5.99437 9.72775 6.02621L10.2076 6.50605C10.2712 6.57149 10.3582 6.60897 10.4495 6.61024C10.5408 6.61152 10.6288 6.57649 10.6942 6.51286C10.7597 6.44923 10.7972 6.36221 10.7984 6.27094C10.7997 6.17968 10.7647 6.09164 10.7011 6.02621L10.2212 5.54637C10.1906 5.51178 10.1532 5.48379 10.1115 5.4641C10.0697 5.44441 10.0243 5.43343 9.97814 5.43184C9.93197 5.43025 9.88596 5.43807 9.84291 5.45484C9.79987 5.4716 9.76069 5.49695 9.72775 5.52935Z"  stroke-width="0.2"/>
<path d="M6.85208 3.11964C6.88359 3.15204 6.92117 3.17792 6.96267 3.1958C7.00418 3.21367 7.0488 3.2232 7.09399 3.22383C7.13918 3.22447 7.18406 3.21619 7.22605 3.19948C7.26804 3.18277 7.30633 3.15795 7.33873 3.12645C7.37113 3.09494 7.39701 3.05736 7.41488 3.01585C7.43276 2.97435 7.44229 2.92972 7.44292 2.88453C7.44355 2.83934 7.43528 2.79447 7.41857 2.75248C7.40186 2.71049 7.37704 2.6722 7.34553 2.6398L6.85208 2.15996C6.78698 2.1042 6.70323 2.07507 6.61758 2.07838C6.53194 2.08169 6.45069 2.11719 6.39008 2.1778C6.32947 2.23841 6.29397 2.31966 6.29066 2.4053C6.28735 2.49095 6.31648 2.5747 6.37224 2.6398L6.85208 3.11964Z"  stroke-width="0.2"/>
</g>
<defs>
<clipPath id="clip0_2412_537222">
<rect width="16" height="16" fill="white"/>
</clipPath>
</defs>
</svg>
