<svg width="16" height="16" viewBox="0 0 16 16" fill="none" xmlns="http://www.w3.org/2000/svg">
<g clip-path="url(#clip0_2413_537273)">
<path d="M13.2103 6.12228C13.8085 6.12228 14.3821 5.88466 14.8051 5.46169C15.2281 5.03872 15.4657 4.46504 15.4657 3.86687V3.22247C15.4657 3.13701 15.4317 3.05506 15.3713 2.99463C15.3109 2.93421 15.2289 2.90026 15.1435 2.90026C13.8772 2.90026 12.9106 2.74239 12.1051 3.73799C11.9467 3.30381 11.6586 2.92879 11.28 2.6637C10.9014 2.3986 10.4505 2.25624 9.98826 2.25586H8.69945C8.614 2.25586 8.53205 2.28981 8.47162 2.35023C8.4112 2.41065 8.37725 2.49261 8.37725 2.57806V3.22247C8.37725 3.82064 8.61487 4.39431 9.03785 4.81729C9.46082 5.24026 10.0345 5.47788 10.6327 5.47788H11.5993V9.98871H11.2771C11.1916 9.98871 11.1097 10.0227 11.0492 10.0831C10.9888 10.1435 10.9549 10.2255 10.9549 10.3109C10.9549 10.3964 10.9888 10.4783 11.0492 10.5387C11.1097 10.5992 11.1916 10.6331 11.2771 10.6331H11.5993V12.8885H8.05505V11.2775H8.37725C8.46271 11.2775 8.54466 11.2436 8.60508 11.1831C8.66551 11.1227 8.69945 11.0408 8.69945 10.9553C8.69945 10.8699 8.66551 10.7879 8.60508 10.7275C8.54466 10.6671 8.46271 10.6331 8.37725 10.6331H8.05505V9.98871H8.69945C9.21217 9.98871 9.70389 9.78503 10.0664 9.42248C10.429 9.05993 10.6327 8.56822 10.6327 8.0555V7.73329C10.6327 7.64784 10.5987 7.56589 10.5383 7.50546C10.4779 7.44504 10.3959 7.41109 10.3105 7.41109C9.34386 7.41109 8.61568 7.29832 7.93261 8.0265C7.79527 7.65691 7.54821 7.33815 7.22455 7.11297C6.90089 6.8878 6.51612 6.76696 6.12184 6.76669H5.15523C5.06978 6.76669 4.98783 6.80063 4.9274 6.86106C4.86698 6.92148 4.83303 7.00344 4.83303 7.08889V7.41109C4.83303 7.92381 5.03671 8.41553 5.39925 8.77808C5.7618 9.14063 6.25352 9.3443 6.76624 9.3443H7.41065V11.9219H7.08844C7.00299 11.9219 6.92104 11.9559 6.86061 12.0163C6.80019 12.0767 6.76624 12.1587 6.76624 12.2441C6.76624 12.3296 6.80019 12.4115 6.86061 12.472C6.92104 12.5324 7.00299 12.5663 7.08844 12.5663H7.41065V12.8885H2.89982V11.9219H3.54422C3.88604 11.9219 4.21385 11.7861 4.45555 11.5444C4.69725 11.3027 4.83303 10.9749 4.83303 10.6331V10.3109C4.83303 10.2255 4.79908 10.1435 4.73866 10.0831C4.67823 10.0227 4.59628 9.98871 4.51083 9.98871C3.61188 9.98871 3.17691 9.90493 2.71294 10.3109C2.25864 9.54729 1.54657 9.66651 0.644404 9.66651C0.558951 9.66651 0.476997 9.70045 0.416573 9.76088C0.356148 9.8213 0.322202 9.90325 0.322202 9.98871V10.3109C0.322202 10.6527 0.457986 10.9805 0.699684 11.2222C0.941383 11.4639 1.2692 11.5997 1.61101 11.5997H2.25541V12.8885H0.322202C0.236749 12.8885 0.154795 12.9225 0.0943705 12.9829C0.0339459 13.0433 0 13.1253 0 13.2107V15.1439C0 15.2294 0.0339459 15.3113 0.0943705 15.3718C0.154795 15.4322 0.236749 15.4661 0.322202 15.4661H15.1435C15.2289 15.4661 15.3109 15.4322 15.3713 15.3718C15.4317 15.3113 15.4657 15.2294 15.4657 15.1439V13.2107C15.4657 13.1253 15.4317 13.0433 15.3713 12.9829C15.3109 12.9225 15.2289 12.8885 15.1435 12.8885H12.2437V11.9219H12.5659C12.6513 11.9219 12.7333 11.888 12.7937 11.8275C12.8541 11.7671 12.8881 11.6852 12.8881 11.5997C12.8881 11.5143 12.8541 11.4323 12.7937 11.3719C12.7333 11.3115 12.6513 11.2775 12.5659 11.2775H12.2437V9.3443H12.5659C12.9931 9.3443 13.4029 9.17457 13.705 8.87245C14.0072 8.57033 14.1769 8.16056 14.1769 7.73329V7.08889C14.1769 7.00344 14.1429 6.92148 14.0825 6.86106C14.0221 6.80063 13.9401 6.76669 13.8547 6.76669C13.1909 6.76669 12.7624 6.70547 12.2437 7.08889V6.12228H13.2103ZM6.76624 8.6999C6.42443 8.6999 6.09662 8.56412 5.85492 8.32242C5.61322 8.08072 5.47743 7.7529 5.47743 7.41109H6.12184C6.46365 7.41109 6.79146 7.54688 7.03316 7.78857C7.27486 8.03027 7.41065 8.35809 7.41065 8.6999H6.76624ZM9.34386 8.0555H9.98826C9.98826 8.39731 9.85248 8.72512 9.61078 8.96682C9.36908 9.20852 9.04127 9.3443 8.69945 9.3443H8.05505C8.05505 9.00249 8.19083 8.67468 8.43253 8.43298C8.67423 8.19128 9.00204 8.0555 9.34386 8.0555V8.0555ZM3.54422 10.6331H4.18863C4.18863 10.804 4.12073 10.9679 3.99988 11.0888C3.87904 11.2096 3.71513 11.2775 3.54422 11.2775H2.89982C2.89982 11.1066 2.96771 10.9427 3.08856 10.8219C3.20941 10.701 3.37332 10.6331 3.54422 10.6331ZM1.61101 10.9553C1.4401 10.9553 1.2762 10.8874 1.15535 10.7666C1.0345 10.6457 0.966606 10.4818 0.966606 10.3109H1.61101C1.78192 10.3109 1.94582 10.3788 2.06667 10.4997C2.18752 10.6205 2.25541 10.7844 2.25541 10.9553H1.61101ZM14.8213 14.8217H0.644404V13.5329H14.8213V14.8217ZM13.8547 3.54467H14.8213V3.86687C14.8213 4.29414 14.6516 4.7039 14.3494 5.00603C14.0473 5.30815 13.6375 5.47788 13.2103 5.47788H12.8108L14.0609 4.43717C14.1267 4.38248 14.1681 4.30389 14.1759 4.21869C14.1838 4.13349 14.1575 4.04866 14.1028 3.98286C14.0481 3.91706 13.9695 3.87568 13.8843 3.86783C13.7991 3.85997 13.7143 3.88628 13.6485 3.94097L12.2437 5.10735C12.2562 4.68851 12.4315 4.29106 12.7323 3.99931C13.0331 3.70756 13.4357 3.54448 13.8547 3.54467V3.54467ZM9.02166 3.22247V2.90026H9.98826C10.4073 2.90007 10.8099 3.06316 11.1107 3.3549C11.4114 3.64665 11.5867 4.04411 11.5993 4.46295L10.2009 3.29657C10.1351 3.24188 10.0503 3.21557 9.96509 3.22342C9.87989 3.23128 9.8013 3.27266 9.74661 3.33846C9.69192 3.40426 9.66561 3.48909 9.67346 3.57428C9.68132 3.65948 9.7227 3.73807 9.7885 3.79276L11.0386 4.83348H10.6327C10.2054 4.83348 9.79563 4.66375 9.49351 4.36162C9.19139 4.0595 9.02166 3.64973 9.02166 3.22247ZM13.2103 7.41109H13.5325V7.73329C13.5325 7.98965 13.4306 8.23551 13.2494 8.41679C13.0681 8.59806 12.8222 8.6999 12.5659 8.6999H12.2437V8.3777C12.2437 8.12134 12.3455 7.87548 12.5268 7.6942C12.7081 7.51293 12.9539 7.41109 13.2103 7.41109Z"/>
<path d="M3.48946 3.48974C3.60929 3.37005 3.70435 3.22791 3.76921 3.07145C3.83407 2.91499 3.86745 2.74728 3.86745 2.57791C3.86745 2.40854 3.83407 2.24083 3.76921 2.08437C3.70435 1.92791 3.60929 1.78577 3.48946 1.66608C3.30921 1.48563 3.07948 1.36272 2.82934 1.31291C2.5792 1.26309 2.31991 1.28862 2.08428 1.38625C1.84866 1.48388 1.6473 1.64923 1.5057 1.86136C1.3641 2.07349 1.28862 2.32286 1.28882 2.57791C1.28862 2.83296 1.3641 3.08233 1.5057 3.29446C1.6473 3.50659 1.84866 3.67194 2.08428 3.76957C2.31991 3.8672 2.5792 3.89272 2.82934 3.84291C3.07948 3.7931 3.30921 3.67019 3.48946 3.48974ZM2.12332 2.1236C2.2466 2.01803 2.40517 1.96287 2.56735 1.96913C2.72953 1.9754 2.88338 2.04263 2.99814 2.15739C3.11291 2.27216 3.18014 2.426 3.1864 2.58818C3.19267 2.75036 3.1375 2.90894 3.03193 3.03221C2.94182 3.12179 2.82724 3.18273 2.7026 3.20737C2.57795 3.23201 2.4488 3.21926 2.33139 3.1707C2.21397 3.12215 2.11353 3.03998 2.04268 2.93451C1.97184 2.82903 1.93376 2.70497 1.93322 2.57791C1.93394 2.40728 2.00231 2.2439 2.12332 2.1236V2.1236Z"/>
<path d="M2.25543 4.51166V4.83386C2.25543 4.91931 2.28938 5.00126 2.3498 5.06169C2.41023 5.12211 2.49218 5.15606 2.57763 5.15606C2.66309 5.15606 2.74504 5.12211 2.80547 5.06169C2.86589 5.00126 2.89984 4.91931 2.89984 4.83386V4.51166C2.89984 4.4262 2.86589 4.34425 2.80547 4.28382C2.74504 4.2234 2.66309 4.18945 2.57763 4.18945C2.49218 4.18945 2.41023 4.2234 2.3498 4.28382C2.28938 4.34425 2.25543 4.4262 2.25543 4.51166Z"/>
<path d="M2.89984 0.644404V0.322202C2.89984 0.236749 2.86589 0.154795 2.80547 0.0943705C2.74504 0.0339459 2.66309 0 2.57763 0C2.49218 0 2.41023 0.0339459 2.3498 0.0943705C2.28938 0.154795 2.25543 0.236749 2.25543 0.322202V0.644404C2.25543 0.729857 2.28938 0.811811 2.3498 0.872235C2.41023 0.93266 2.49218 0.966606 2.57763 0.966606C2.66309 0.966606 2.74504 0.93266 2.80547 0.872235C2.86589 0.811811 2.89984 0.729857 2.89984 0.644404Z"/>
<path d="M0.322202 2.90026H0.644404C0.729857 2.90026 0.811811 2.86632 0.872235 2.80589C0.93266 2.74547 0.966606 2.66351 0.966606 2.57806C0.966606 2.49261 0.93266 2.41065 0.872235 2.35023C0.811811 2.28981 0.729857 2.25586 0.644404 2.25586H0.322202C0.236749 2.25586 0.154795 2.28981 0.0943705 2.35023C0.0339459 2.41065 0 2.49261 0 2.57806C0 2.66351 0.0339459 2.74547 0.0943705 2.80589C0.154795 2.86632 0.236749 2.90026 0.322202 2.90026Z"/>
<path d="M4.51086 2.90026H4.83306C4.91852 2.90026 5.00047 2.86632 5.0609 2.80589C5.12132 2.74547 5.15527 2.66351 5.15527 2.57806C5.15527 2.49261 5.12132 2.41065 5.0609 2.35023C5.00047 2.28981 4.91852 2.25586 4.83306 2.25586H4.51086C4.42541 2.25586 4.34345 2.28981 4.28303 2.35023C4.22261 2.41065 4.18866 2.49261 4.18866 2.57806C4.18866 2.66351 4.22261 2.74547 4.28303 2.80589C4.34345 2.86632 4.42541 2.90026 4.51086 2.90026Z"/>
<path d="M0.982732 3.71859L0.753967 3.94413C0.693295 4.0048 0.65921 4.08709 0.65921 4.17289C0.65921 4.25869 0.693295 4.34099 0.753967 4.40166C0.814639 4.46233 0.896929 4.49641 0.982732 4.49641C1.06854 4.49641 1.15082 4.46233 1.2115 4.40166L1.43704 4.17289C1.48982 4.11125 1.5174 4.03197 1.51427 3.95088C1.51114 3.86979 1.47752 3.79287 1.42014 3.73548C1.36276 3.6781 1.28584 3.64449 1.20475 3.64135C1.12365 3.63822 1.04437 3.6658 0.982732 3.71859Z"/>
<path d="M3.94378 1.53366C4.10488 1.53366 4.14999 1.45956 4.4013 1.21146C4.46198 1.15079 4.49606 1.0685 4.49606 0.982699C4.49606 0.896896 4.46198 0.814606 4.4013 0.753934C4.34063 0.693262 4.25834 0.65918 4.17254 0.65918C4.08674 0.65918 4.00445 0.693262 3.94378 0.753934L3.71824 0.982699C3.67299 1.02757 3.64207 1.08485 3.62938 1.1473C3.61669 1.20975 3.6228 1.27456 3.64694 1.33353C3.67108 1.3925 3.71217 1.44299 3.765 1.47862C3.81784 1.51424 3.88005 1.53339 3.94378 1.53366Z"/>
<path d="M0.982732 1.43701C1.04437 1.48979 1.12365 1.51737 1.20475 1.51424C1.28584 1.51111 1.36276 1.47749 1.42014 1.42011C1.47752 1.36273 1.51114 1.28581 1.51427 1.20471C1.5174 1.12362 1.48982 1.04434 1.43704 0.982699L1.2115 0.753934C1.15082 0.693262 1.06854 0.65918 0.982732 0.65918C0.896929 0.65918 0.814639 0.693262 0.753967 0.753934C0.693295 0.814606 0.65921 0.896896 0.65921 0.982699C0.65921 1.0685 0.693295 1.15079 0.753967 1.21146L0.982732 1.43701Z"/>
<path d="M3.71822 4.189L3.94376 4.41777C4.00443 4.47844 4.08672 4.51252 4.17252 4.51252C4.25832 4.51252 4.34061 4.47844 4.40128 4.41777C4.46196 4.35709 4.49604 4.2748 4.49604 4.189C4.49604 4.1032 4.46196 4.02091 4.40128 3.96024L4.17252 3.73469C4.14363 3.70097 4.10809 3.67357 4.06812 3.65423C4.02814 3.63489 3.9846 3.62402 3.94023 3.62231C3.89585 3.6206 3.85161 3.62807 3.81026 3.64427C3.76891 3.66047 3.73136 3.68504 3.69996 3.71644C3.66856 3.74785 3.64399 3.78539 3.62779 3.82674C3.61159 3.86809 3.60412 3.91234 3.60583 3.95671C3.60754 4.00108 3.61841 4.04462 3.63775 4.0846C3.65709 4.12457 3.68449 4.16012 3.71822 4.189Z"/>
</g>
<defs>
<clipPath id="clip0_2413_537273">
<rect width="16" height="16" fill="white"/>
</clipPath>
</defs>
</svg>
